<svg xmlns="http://www.w3.org/2000/svg" width="22.107" height="22.107" viewBox="0 0 22.107 22.107">
  <path id="windows-media-audio" d="M20.108,0H2A2,2,0,0,0,0,2V20.108a2,2,0,0,0,2,2H20.108a2,2,0,0,0,2-2V2A2,2,0,0,0,20.108,0ZM6.841,19.089a.582.582,0,0,1-.582.582H3.782a.582.582,0,0,1-.582-.582V8.7a.582.582,0,0,1,.582-.582H6.259a.582.582,0,0,1,.582.582ZM5.02,7.143A2.353,2.353,0,1,1,7.374,4.79,2.353,2.353,0,0,1,5.02,7.143ZM19.787,19.136a.535.535,0,0,1-.535.535H16.594a.535.535,0,0,1-.535-.535V14.265c0-.727.213-3.184-1.9-3.184-1.638,0-1.971,1.682-2.037,2.437v5.618a.535.535,0,0,1-.535.535H9.016a.535.535,0,0,1-.535-.535V8.657a.535.535,0,0,1,.535-.535h2.571a.535.535,0,0,1,.535.535v.906a3.649,3.649,0,0,1,3.433-1.615c4.257,0,4.232,3.977,4.232,6.162v5.026Z" fill="#fff"/>
</svg>
