<svg xmlns="http://www.w3.org/2000/svg" width="81.534" height="86.873" viewBox="0 0 81.534 86.873">
  <g id="social-media_1_" data-name="social-media (1)" transform="translate(-15.731)">
    <path id="Path_1509" data-name="Path 1509" d="M220.566,51.876a8.248,8.248,0,0,0,4.848,1.565H240.9v7.511l9.819-7.511h4.236a8.256,8.256,0,0,0,8.268-8.243V15.743A8.256,8.256,0,0,0,254.958,7.5H225.413a8.256,8.256,0,0,0-8.268,8.243V51.876Z" transform="translate(-167.235 -6.227)" fill="#f7f3f1"/>
    <path id="Path_1510" data-name="Path 1510" d="M371.2,7.5h-7.082a8.256,8.256,0,0,1,8.268,8.243V45.2a8.256,8.256,0,0,1-8.268,8.243h-4.236l-2.737,2.094v5.417l9.819-7.511H371.2a8.256,8.256,0,0,0,8.268-8.243V15.743A8.255,8.255,0,0,0,371.2,7.5Z" transform="translate(-283.479 -6.227)" fill="#ebe1dc"/>
    <path id="Path_1511" data-name="Path 1511" d="M306.729,86.968l.852.69a7.59,7.59,0,0,0,4.775,1.691h12.1a2.018,2.018,0,0,0,2.016-2.116c-.051-1.085,0-10.97,0-12.085a2.018,2.018,0,0,0-2.018-2.018l-8.2-.025,1-2.379a8.608,8.608,0,0,0-.456-7.619,1.343,1.343,0,0,0-2.509.666,8.755,8.755,0,0,1-2.19,5.793l-5.231,5.919h-1.907V86.968h1.767Z" transform="translate(-240.149 -51.836)" fill="#ffd36c"/>
    <path id="Path_1512" data-name="Path 1512" d="M280.3,142.387H274.78a.661.661,0,0,1-.661-.661v-14.08a.661.661,0,0,1,.661-.661H280.3a.661.661,0,0,1,.661.661v14.08A.661.661,0,0,1,280.3,142.387Z" transform="translate(-214.54 -105.435)" fill="#8ee6f3"/>
    <path id="Path_1513" data-name="Path 1513" d="M59.569,178.728V149a6.51,6.51,0,0,0-6.52-6.5H29.75a6.51,6.51,0,0,0-6.52,6.5v23.228a6.51,6.51,0,0,0,6.52,6.5h12.8v5.978l7.743-5.978Z" transform="translate(-6.226 -118.318)" fill="#4ed5ea"/>
    <path id="Path_1514" data-name="Path 1514" d="M153.774,142.5h-9.233a6.51,6.51,0,0,1,6.52,6.5v29.728h9.233V149A6.51,6.51,0,0,0,153.774,142.5Z" transform="translate(-106.951 -118.318)" fill="#62a6fd"/>
    <path id="Path_1515" data-name="Path 1515" d="M208.159,328H191.625A4.62,4.62,0,0,0,187,332.611v16.483a4.62,4.62,0,0,0,4.627,4.613h9.083v4.243l5.495-4.243h1.956a4.62,4.62,0,0,0,4.627-4.613V332.611A4.62,4.62,0,0,0,208.159,328Z" transform="translate(-142.203 -272.337)" fill="#fa9084"/>
    <path id="Path_1516" data-name="Path 1516" d="M275.241,328h-7.127a4.62,4.62,0,0,1,4.627,4.613v16.484a4.62,4.62,0,0,1-4.627,4.613h-.324v4.243l5.495-4.243h1.956a4.62,4.62,0,0,0,4.627-4.613V332.611A4.62,4.62,0,0,0,275.241,328Z" transform="translate(-209.285 -272.337)" fill="#ff6cb5"/>
    <path id="Path_1517" data-name="Path 1517" d="M233.427,386.28c3.979-2.109,6.04-3.9,6.04-6.684,0-3.835-4.7-4.794-6.04-1.917-1.534-2.972-6.04-1.917-6.04,1.917C227.387,382.377,229.448,384.171,233.427,386.28Z" transform="translate(-175.738 -312.164)" fill="#f7f3f1"/>
    <path id="Path_1518" data-name="Path 1518" d="M87.724,0H83.989a1.273,1.273,0,0,0,0,2.545h3.735a6.991,6.991,0,0,1,7,6.97V38.97a6.991,6.991,0,0,1-7,6.97H83.488a1.273,1.273,0,0,0-.773.262l-7.773,5.946V47.213a1.273,1.273,0,0,0-1.273-1.273H58.178a6.961,6.961,0,0,1-3.563-.971V30.682a7.766,7.766,0,0,0-3.433-6.439V9.516a6.991,6.991,0,0,1,7-6.97H76.013a1.273,1.273,0,0,0,0-2.545H58.178a9.539,9.539,0,0,0-9.541,9.516V23.124a7.8,7.8,0,0,0-1.815-.215h-23.3a7.792,7.792,0,0,0-7.793,7.773V33.43a1.273,1.273,0,0,0,2.545,0V30.682a5.243,5.243,0,0,1,5.247-5.228h23.3a5.244,5.244,0,0,1,5.248,5.228V45.476a1.273,1.273,0,0,0,0,.337v8.1c0,.16-.01.319-.024.478H49.422a5.9,5.9,0,0,0-5.8,4.831,1.276,1.276,0,0,0-.33.184L37.6,63.8V60.41a1.273,1.273,0,0,0-1.273-1.273h-12.8a5.243,5.243,0,0,1-5.247-5.228V41.067a1.273,1.273,0,0,0-2.545,0V53.91a7.792,7.792,0,0,0,7.793,7.773H35.051v4.706A1.292,1.292,0,0,0,37.1,67.4l6.421-4.957V76.757a5.9,5.9,0,0,0,5.9,5.886h7.81v2.97a1.292,1.292,0,0,0,2.05,1.007l5.151-3.977h1.522a5.9,5.9,0,0,0,5.9-5.886V74.5a1.273,1.273,0,0,0-2.545,0v2.26a3.351,3.351,0,0,1-3.354,3.34H64a1.273,1.273,0,0,0-.778.265l-3.445,2.659V81.37A1.273,1.273,0,0,0,58.5,80.1H49.422a3.351,3.351,0,0,1-3.354-3.34V60.273a3.351,3.351,0,0,1,3.354-3.34H65.956a3.351,3.351,0,0,1,3.354,3.34v6.248a1.273,1.273,0,0,0,2.545,0V60.274a5.9,5.9,0,0,0-5.9-5.886H54.6c.01-.159.015-6.587.015-6.587a9.526,9.526,0,0,0,3.563.686H72.4v6.238a1.292,1.292,0,0,0,2.046,1.011l9.477-7.249h3.805a9.539,9.539,0,0,0,9.541-9.516V9.516A9.539,9.539,0,0,0,87.724,0Z"/>
    <path id="Path_1519" data-name="Path 1519" d="M284.444,54.679a2.653,2.653,0,0,0-3.263,2.534,7.477,7.477,0,0,1-1.871,4.95L275.8,66.131a1.271,1.271,0,0,0-1.066-.579h-6.846a1.273,1.273,0,0,0-1.273,1.273v15.4a1.273,1.273,0,0,0,1.273,1.273h6.846a1.272,1.272,0,0,0,1.157-.744,8.893,8.893,0,0,0,4.626,1.3h12.1a3.331,3.331,0,0,0,3.287-3.448c-.039-.817,0-11.781,0-12.025a3.294,3.294,0,0,0-3.287-3.291l-6.291-.019.26-.617a9.938,9.938,0,0,0-.524-8.745,2.594,2.594,0,0,0-1.624-1.237Zm-10.98,26.276h-4.3V68.1h4.3Zm19.154-13.113a.746.746,0,0,1,.745.745c0,.242,0,.9-.006,1.79-.019,4.92-.031,9.579,0,10.354a.745.745,0,0,1-.744.783h-12.1a6.337,6.337,0,0,1-3.974-1.407l-.536-.434V69.741l5.208-5.893a10.021,10.021,0,0,0,2.509-6.635.071.071,0,0,1,.131-.035,7.377,7.377,0,0,1,.389,6.492l-1,2.379a1.273,1.273,0,0,0,1.169,1.768Z" transform="translate(-208.313 -45.276)"/>
    <path id="Path_1520" data-name="Path 1520" d="M73.724,204.868a1.273,1.273,0,1,0,0,2.545h3.752l-.7,4.239a1.273,1.273,0,1,0,2.511.415l.769-4.654h3.07l-.7,4.239a1.273,1.273,0,1,0,2.511.415l.769-4.654h5.107a1.273,1.273,0,0,0,0-2.545H86.126l.513-3.1h4.173a1.273,1.273,0,1,0,0-2.545H87.061l.7-4.239a1.273,1.273,0,1,0-2.511-.415l-.769,4.654H81.41l.7-4.239a1.273,1.273,0,1,0-2.511-.415l-.769,4.654H73.724a1.273,1.273,0,1,0,0,2.545H78.41l-.513,3.1Zm7.266-3.1h3.07l-.513,3.1h-3.07Z" transform="translate(-47.095 -160.662)"/>
    <path id="Path_1521" data-name="Path 1521" d="M227.185,369.431a4.28,4.28,0,0,0-3.766-.846,4.735,4.735,0,0,0-3.531,4.778,6.249,6.249,0,0,0,1.881,4.473,18.671,18.671,0,0,0,4.836,3.336,1.272,1.272,0,0,0,1.192,0c4.032-2.137,6.717-4.283,6.717-7.809a4.7,4.7,0,0,0-3.657-4.753A4.268,4.268,0,0,0,227.185,369.431Zm4.783,3.932c0,1.9-1.261,3.308-4.767,5.238-3.506-1.93-4.767-3.336-4.767-5.238a2.177,2.177,0,0,1,1.586-2.3,1.909,1.909,0,0,1,.448-.054,1.756,1.756,0,0,1,1.6,1.024,1.273,1.273,0,0,0,2.284-.046,1.654,1.654,0,0,1,1.951-.889A2.152,2.152,0,0,1,231.967,373.362Z" transform="translate(-169.511 -305.93)"/>
  </g>
</svg>
