<svg xmlns="http://www.w3.org/2000/svg" width="63.633" height="63.625" viewBox="0 0 63.633 63.625">
  <g id="search_3_" data-name="search (3)" transform="translate(0 -0.033)">
    <circle id="Ellipse_8" data-name="Ellipse 8" cx="23.367" cy="23.367" r="23.367" transform="translate(1.242 1.264)" fill="#78d2fa"/>
    <circle id="Ellipse_9" data-name="Ellipse 9" cx="17.401" cy="17.401" r="17.401" transform="translate(7.208 7.23)" fill="#c8f5ff"/>
    <path id="Path_1265" data-name="Path 1265" d="M313.784,308.329l17.542,17.542a3.822,3.822,0,1,1-5.4,5.4l-17.542-17.542Z" transform="translate(-270.052 -269.98)" fill="#f5b955"/>
    <rect id="Rectangle_164" data-name="Rectangle 164" width="7.644" height="6.659" transform="translate(38.326 43.753) rotate(-45)" fill="#f0f0fa"/>
    <path id="Path_1266" data-name="Path 1266" d="M66.636,85.229A18.643,18.643,0,1,0,47.992,66.585,18.665,18.665,0,0,0,66.636,85.229Zm0-34.8A16.158,16.158,0,1,1,50.478,66.585,16.176,16.176,0,0,1,66.636,50.428Z" transform="translate(-42.027 -41.955)"/>
    <path id="Path_1267" data-name="Path 1267" d="M57.178,321.259a1.243,1.243,0,0,0-1.758,1.758l.115.115a1.243,1.243,0,0,0,1.747-1.768Z" transform="translate(-48.213 -280.985)"/>
    <path id="Path_1268" data-name="Path 1268" d="M62.152,55.012,45.22,38.079a24.609,24.609,0,1,0-41.39-.253,1.243,1.243,0,1,0,2.1-1.335,22.125,22.125,0,1,1,6.408,6.551,1.243,1.243,0,1,0-1.381,2.067,24.661,24.661,0,0,0,27.1.129l4.1,4.1h0L54.989,62.174a5.065,5.065,0,0,0,7.163-7.162ZM42.01,42.032a24.807,24.807,0,0,0,1.728-1.919l2.945,2.945-.022.02L43.035,46.7,40.09,43.759A24.589,24.589,0,0,0,42.01,42.032ZM60.395,60.416a2.579,2.579,0,0,1-3.647,0L44.793,48.462l3.626-3.626.02-.022L60.395,56.769A2.582,2.582,0,0,1,60.395,60.416Z" transform="translate(0 0)"/>
    <path id="Path_1269" data-name="Path 1269" d="M223.523,106.209a10.041,10.041,0,0,1,6.223,9.308,1.243,1.243,0,1,0,2.486,0,12.52,12.52,0,0,0-7.759-11.6,1.243,1.243,0,1,0-.95,2.3Z" transform="translate(-195.07 -90.886)"/>
    <path id="Path_1270" data-name="Path 1270" d="M189.242,99.43h.156a1.243,1.243,0,0,0,.017-2.486h-.173a1.243,1.243,0,1,0,0,2.486Z" transform="translate(-164.634 -84.867)"/>
  </g>
</svg>
