<svg id="teamwork" xmlns="http://www.w3.org/2000/svg" width="74.886" height="74.886" viewBox="0 0 74.886 74.886">
  <g id="Group_1772" data-name="Group 1772" transform="translate(1.089 1.083)">
    <path id="Path_1289" data-name="Path 1289" d="M330.084,25.1h4.491l.886-1.484,4.651,1.073.371-12.627,4.718,1.316.125-5.974v0H330.084V25.1Z" transform="translate(-282.895 -7.403)" fill="#ff5595"/>
    <path id="Path_1290" data-name="Path 1290" d="M330.084,93.407h4.491l.886-1.484L340.112,93l.164-5.585H330.084v6Z" transform="translate(-282.895 -75.708)" fill="#ff3581"/>
    <path id="Path_1291" data-name="Path 1291" d="M370.977,12.872a1.973,1.973,0,0,0-2.069,1.971V12.371a2.01,2.01,0,0,0-1.878-2.027,1.973,1.973,0,0,0-2.069,1.971V9.375A1.973,1.973,0,0,0,362.893,7.4a2.01,2.01,0,0,0-1.878,2.027v2.885a1.973,1.973,0,0,0-2.069-1.971,2.01,2.01,0,0,0-1.878,2.027V23.233a.49.49,0,0,1-.827.356L354.1,21.565a2.122,2.122,0,0,0-3.073.164,1.575,1.575,0,0,0,0,2.03l.9,1.073a6.722,6.722,0,0,1,1.2,2.092,9.071,9.071,0,0,0,2.64,3.9,3.68,3.68,0,0,1,1.3,2.8v3.442l.82,1.134h11.884l1.766-1.134V32.89a7.92,7.92,0,0,1,.624-3.143,8.439,8.439,0,0,0,.692-3.346V14.9a2.01,2.01,0,0,0-1.878-2.027Z" transform="translate(-300.462 -7.402)" fill="#ffcebe"/>
    <g id="Group_1763" data-name="Group 1763" transform="translate(50.199 2.941)">
      <path id="Path_1292" data-name="Path 1292" d="M359.177,116.843V113.4a3.667,3.667,0,0,0-1.3-2.8,9.063,9.063,0,0,1-2.631-3.86,6.943,6.943,0,0,0-1.212-2.136l-.855-1.023a1.647,1.647,0,0,1-.161-1.919c.437-.7,1.12-.555,1.8-.14l-.716-.678a2.122,2.122,0,0,0-3.073.164,1.575,1.575,0,0,0,0,2.03l.9,1.073a6.721,6.721,0,0,1,1.2,2.092,9.071,9.071,0,0,0,2.64,3.9,3.68,3.68,0,0,1,1.3,2.8v3.442l.82,1.134h1.751Z" transform="translate(-350.661 -89.626)" fill="#ffb1a0"/>
      <path id="Path_1293" data-name="Path 1293" d="M393.758,39.674V30.029a2.038,2.038,0,0,1,1.295-1.905,1.966,1.966,0,0,0-1.525-.614,2.01,2.01,0,0,0-1.878,2.027V40.4a.489.489,0,0,1-.484.49A1.58,1.58,0,0,0,393.758,39.674Z" transform="translate(-385.242 -27.507)" fill="#ffb1a0"/>
    </g>
    <path id="Path_1294" data-name="Path 1294" d="M400.119,210.223H384.456a1.018,1.018,0,0,0-1.018,1.018v21l1.484.886-1.073,4.651,12.627.371-1.316,4.718,5.974.125h0V211.241A1.017,1.017,0,0,0,400.119,210.223Z" transform="translate(-328.445 -180.558)" fill="#ffe02f"/>
    <g id="Group_1764" data-name="Group 1764" transform="translate(54.993 29.665)">
      <path id="Path_1295" data-name="Path 1295" d="M389.435,237.939v-26.7a1.018,1.018,0,0,1,1.018-1.018h-6a1.018,1.018,0,0,0-1.018,1.018v21l1.484.886-1.073,4.651Z" transform="translate(-383.438 -210.222)" fill="#fbc700"/>
    </g>
    <g id="Group_1765" data-name="Group 1765" transform="translate(60.554 0.001)">
      <path id="Path_1296" data-name="Path 1296" d="M477.489,44.791a1.973,1.973,0,0,0-2.069,1.97v7.355a1.1,1.1,0,1,0,2.194,0V44.8C477.572,44.8,477.531,44.793,477.489,44.791Z" transform="translate(-467.527 -39.321)" fill="#ffb1a0"/>
      <path id="Path_1297" data-name="Path 1297" d="M422.554,23.3a1.1,1.1,0,0,0,1.1-1.1V7.42a1.984,1.984,0,0,0-.316-.013,2.01,2.01,0,0,0-1.878,2.026V22.2A1.1,1.1,0,0,0,422.554,23.3Z" transform="translate(-421.457 -7.406)" fill="#ffb1a0"/>
      <path id="Path_1298" data-name="Path 1298" d="M449.536,40.458a1.1,1.1,0,0,0,1.1-1.1V27.521c-.042,0-.083-.01-.125-.012a1.973,1.973,0,0,0-2.069,1.971v9.882A1.1,1.1,0,0,0,449.536,40.458Z" transform="translate(-444.493 -24.567)" fill="#ffb1a0"/>
    </g>
    <path id="Path_1299" data-name="Path 1299" d="M320.974,360.975h-2.885a1.973,1.973,0,0,0,1.971-2.069,2.01,2.01,0,0,0-2.027-1.878H307.171a.49.49,0,0,1-.356-.827l2.024-2.139a2.122,2.122,0,0,0-.163-3.073,1.575,1.575,0,0,0-2.03,0l-1.073.9a6.721,6.721,0,0,1-2.092,1.2,9.071,9.071,0,0,0-3.9,2.64,3.68,3.68,0,0,1-2.8,1.3h-3.442l-1.42.61v12.023l1.42,1.837h4.176a7.92,7.92,0,0,1,3.143.624,8.44,8.44,0,0,0,3.346.692h11.5a2.01,2.01,0,0,0,2.027-1.878,1.973,1.973,0,0,0-1.971-2.069h2.472a2.01,2.01,0,0,0,2.027-1.878,1.973,1.973,0,0,0-1.971-2.069h2.94A1.973,1.973,0,0,0,323,362.853a2.009,2.009,0,0,0-2.026-1.878Z" transform="translate(-250.311 -300.421)" fill="#ffcebe"/>
    <g id="Group_1766" data-name="Group 1766" transform="translate(41.607 56.608)">
      <path id="Path_1300" data-name="Path 1300" d="M307.929,408.026a8.44,8.44,0,0,1-3.239-.646,8.472,8.472,0,0,0-3.249-.669h-2.807a2.789,2.789,0,0,1-2.789-2.789v-9.487h-2.508l-1.42.61v12.023l1.42,1.837h4.176a7.92,7.92,0,0,1,3.143.624,8.44,8.44,0,0,0,3.346.692h11.5a2.01,2.01,0,0,0,2.027-1.878,1.987,1.987,0,0,0-.013-.316h-9.589Z" transform="translate(-291.916 -394.435)" fill="#ffb1a0"/>
    </g>
    <g id="Group_1767" data-name="Group 1767" transform="translate(56.8 58.36)">
      <path id="Path_1301" data-name="Path 1301" d="M395.79,407.513a1.1,1.1,0,0,0,1.1,1.1h9.882a1.973,1.973,0,0,0,1.971-2.069c0-.042-.008-.084-.012-.125h-11.84A1.1,1.1,0,0,0,395.79,407.513Z" transform="translate(-395.79 -406.416)" fill="#ffb1a0"/>
      <path id="Path_1302" data-name="Path 1302" d="M408.739,460.7a1.985,1.985,0,0,0-.013-.316h-11.84a1.1,1.1,0,0,0,0,2.194h9.826A2.01,2.01,0,0,0,408.739,460.7Z" transform="translate(-395.79 -452.486)" fill="#ffb1a0"/>
      <path id="Path_1303" data-name="Path 1303" d="M396.887,435.591H409.71a1.973,1.973,0,0,0,1.97-2.069c0-.042-.008-.084-.012-.125H396.887a1.1,1.1,0,1,0,0,2.194Z" transform="translate(-395.79 -429.451)" fill="#ffb1a0"/>
    </g>
    <path id="Path_1304" data-name="Path 1304" d="M87.857,384.494H82.046v8.39l-4.452,2.743v5.468h31.749a1.018,1.018,0,0,0,1.018-1.018V384.414a1.018,1.018,0,0,0-1.018-1.018h-21Z" transform="translate(-67.334 -328.403)" fill="#73d578"/>
    <path id="Path_1305" data-name="Path 1305" d="M109.343,457.839H77.594v5.942h31.749a1.018,1.018,0,0,0,1.018-1.018v-5.942A1.018,1.018,0,0,1,109.343,457.839Z" transform="translate(-67.334 -391.09)" fill="#00c63a"/>
    <path id="Path_1306" data-name="Path 1306" d="M31.309,307.4l-.9-1.073a6.723,6.723,0,0,1-1.2-2.092,9.071,9.071,0,0,0-2.64-3.9,3.68,3.68,0,0,1-1.3-2.8v-3.442l-1.389-1.284H12.719L10.8,294.093v4.176a7.92,7.92,0,0,1-.624,3.143,8.439,8.439,0,0,0-.692,3.346v11.5a2.01,2.01,0,0,0,1.878,2.027,1.973,1.973,0,0,0,2.069-1.971v2.472a2.01,2.01,0,0,0,1.878,2.027,1.973,1.973,0,0,0,2.069-1.971v2.94a1.973,1.973,0,0,0,2.069,1.971,2.01,2.01,0,0,0,1.878-2.027v-2.885a1.973,1.973,0,0,0,2.069,1.971,2.01,2.01,0,0,0,1.878-2.027V307.926a.49.49,0,0,1,.827-.356l2.139,2.024a2.122,2.122,0,0,0,3.073-.164,1.576,1.576,0,0,0,0-2.03Z" transform="translate(-9.188 -251.065)" fill="#ffcebe"/>
    <g id="Group_1768" data-name="Group 1768" transform="translate(0.299 41.744)">
      <path id="Path_1307" data-name="Path 1307" d="M11.827,307.585a8.437,8.437,0,0,1,.646-3.239,8.471,8.471,0,0,0,.669-3.249V298.39a2.753,2.753,0,0,1,2.753-2.753h9.376v-1.544l-1.389-1.284H12.719L10.8,294.093v4.176a7.92,7.92,0,0,1-.624,3.143,8.439,8.439,0,0,0-.692,3.346v11.5a1.968,1.968,0,0,0,2.34,1.993Z" transform="translate(-9.487 -292.809)" fill="#ffb1a0"/>
    </g>
    <path id="Path_1308" data-name="Path 1308" d="M24.045,87.816V82h-8.39l-2.743-4.452H7.444V109.3a1.018,1.018,0,0,0,1.018,1.018H24.125a1.018,1.018,0,0,0,1.018-1.018v-21Z" transform="translate(-7.444 -67.292)" fill="#60b9fe"/>
    <path id="Path_1309" data-name="Path 1309" d="M13.386,109.3V77.553H7.444V109.3a1.018,1.018,0,0,0,1.018,1.018H14.4A1.018,1.018,0,0,1,13.386,109.3Z" transform="translate(-7.444 -67.293)" fill="#1ca8ff"/>
    <g id="Group_1769" data-name="Group 1769" transform="translate(4.245 56.8)">
      <path id="Path_1310" data-name="Path 1310" d="M38.663,408.684v-11.84a1.1,1.1,0,1,0-2.194,0v9.826a2.01,2.01,0,0,0,1.878,2.027A1.984,1.984,0,0,0,38.663,408.684Z" transform="translate(-36.469 -395.747)" fill="#ffb1a0"/>
      <path id="Path_1311" data-name="Path 1311" d="M91.529,395.747a1.1,1.1,0,0,0-1.1,1.1v12.767h0v-2.885A1.973,1.973,0,0,0,92.5,408.7c.042,0,.084-.008.125-.012v-11.84A1.1,1.1,0,0,0,91.529,395.747Z" transform="translate(-82.539 -395.747)" fill="#ffb1a0"/>
      <path id="Path_1312" data-name="Path 1312" d="M64.548,395.747a1.1,1.1,0,0,0-1.1,1.1v12.822a1.973,1.973,0,0,0,2.069,1.971c.042,0,.084-.008.125-.012V396.844A1.1,1.1,0,0,0,64.548,395.747Z" transform="translate(-59.505 -395.747)" fill="#ffb1a0"/>
    </g>
    <path id="Path_1313" data-name="Path 1313" d="M37.109,10.761H32.933a7.918,7.918,0,0,1-3.143-.624,8.44,8.44,0,0,0-3.346-.692h-11.5a2.01,2.01,0,0,0-2.027,1.878,1.973,1.973,0,0,0,1.971,2.069H12.414a2.01,2.01,0,0,0-2.027,1.878,1.973,1.973,0,0,0,1.971,2.069H9.418a1.973,1.973,0,0,0-1.971,2.069,2.01,2.01,0,0,0,2.027,1.878h2.885a1.973,1.973,0,0,0-1.971,2.069,2.01,2.01,0,0,0,2.027,1.878H23.276a.49.49,0,0,1,.356.827L21.608,28.2a2.122,2.122,0,0,0,.164,3.073,1.575,1.575,0,0,0,2.03,0l1.073-.9a6.723,6.723,0,0,1,2.092-1.2,9.071,9.071,0,0,0,3.9-2.64,3.68,3.68,0,0,1,2.8-1.3h3.442l1.107-.685V11.9Z" transform="translate(-7.445 -9.146)" fill="#ffcebe"/>
    <g id="Group_1770" data-name="Group 1770" transform="translate(2.941 13.043)">
      <path id="Path_1314" data-name="Path 1314" d="M112.958,98.872a3.667,3.667,0,0,0-2.8,1.3A9.062,9.062,0,0,1,106.3,102.8a6.94,6.94,0,0,0-2.135,1.212l-1.008.843a1.673,1.673,0,0,1-1.923.178.806.806,0,0,1-.422-.972,2.121,2.121,0,0,0,.251,2.971,1.575,1.575,0,0,0,2.03,0l1.073-.9a6.723,6.723,0,0,1,2.092-1.2,9.071,9.071,0,0,0,3.9-2.64,3.68,3.68,0,0,1,2.8-1.3H116.4l1.107-.685V98.187l-1.107.685h-3.442Z" transform="translate(-89.676 -97.951)" fill="#ffb1a0"/>
      <path id="Path_1315" data-name="Path 1315" d="M40.89,99.914A1.5,1.5,0,0,0,39.712,97.5H29.577a2.053,2.053,0,0,1-1.714-.921,1.964,1.964,0,0,0-.313,1.164,2.01,2.01,0,0,0,2.027,1.878H40.439A.483.483,0,0,1,40.89,99.914Z" transform="translate(-27.549 -96.575)" fill="#ffb1a0"/>
    </g>
    <g id="Group_1771" data-name="Group 1771" transform="translate(0.001 2.051)">
      <path id="Path_1316" data-name="Path 1316" d="M55.255,22.525a1.1,1.1,0,0,0-1.1-1.1H44.845c0,.042-.01.083-.012.125A1.973,1.973,0,0,0,46.8,23.622h7.354A1.1,1.1,0,0,0,55.255,22.525Z" transform="translate(-39.363 -21.428)" fill="#ffb1a0"/>
      <path id="Path_1317" data-name="Path 1317" d="M34.852,49.507a1.1,1.1,0,0,0-1.1-1.1H21.915c0,.042-.01.083-.012.125A1.973,1.973,0,0,0,23.874,50.6h9.881A1.1,1.1,0,0,0,34.852,49.507Z" transform="translate(-18.961 -44.464)" fill="#ffb1a0"/>
      <path id="Path_1318" data-name="Path 1318" d="M22.242,77.585a1.1,1.1,0,0,0,0-2.194H7.462a1.985,1.985,0,0,0-.013.316,2.01,2.01,0,0,0,2.027,1.878H22.242Z" transform="translate(-7.448 -67.498)" fill="#ffb1a0"/>
    </g>
    <path id="Path_1319" data-name="Path 1319" d="M228.082,7.4h-16.8a1.018,1.018,0,0,0-1.018,1.018V24.084a1.018,1.018,0,0,0,1.018,1.018h16.8Z" transform="translate(-180.599 -7.403)" fill="#ff5595"/>
    <path id="Path_1320" data-name="Path 1320" d="M228.082,81.47h-16.8a1.018,1.018,0,0,1-1.018-1.018v6a1.018,1.018,0,0,0,1.018,1.018h16.8Z" transform="translate(-180.599 -69.768)" fill="#ff3581"/>
  </g>
  <g id="Group_1773" data-name="Group 1773" transform="translate(0 0)">
    <path id="Path_1321" data-name="Path 1321" d="M73.271,29.727V26.585a6.79,6.79,0,0,1,.534-2.708,9.483,9.483,0,0,0,.781-3.781V8.594A3.076,3.076,0,0,0,70.607,5.6a3.07,3.07,0,0,0-3.913-2.538A3.073,3.073,0,0,0,63.529,0H31.779a2.116,2.116,0,0,0-2.052,1.614H26.585a6.79,6.79,0,0,1-2.708-.534A9.484,9.484,0,0,0,20.1.3H8.594A3.076,3.076,0,0,0,5.6,4.279,3.069,3.069,0,0,0,3.066,8.192,3.072,3.072,0,0,0,0,11.357V43.107a2.117,2.117,0,0,0,1.614,2.052V48.3a6.791,6.791,0,0,1-.534,2.708A9.483,9.483,0,0,0,.3,54.789v11.5a3.076,3.076,0,0,0,3.98,2.99A3.07,3.07,0,0,0,8.192,71.82a3.072,3.072,0,0,0,3.166,3.066H43.107a2.116,2.116,0,0,0,2.052-1.614H48.3a6.79,6.79,0,0,1,2.708.534,9.483,9.483,0,0,0,3.781.781h11.5a3.076,3.076,0,0,0,2.99-3.98,3.069,3.069,0,0,0,2.538-3.913,3.071,3.071,0,0,0,3.066-3.166V44.887a1.1,1.1,0,0,0-2.194,0v15.8a3.4,3.4,0,0,0-.872-.137,3.076,3.076,0,0,0-3-3.947H59.367l1.055-1.115a3.222,3.222,0,0,0-.248-4.661,2.666,2.666,0,0,0-2.987-.316V31.858h15.5v7.909a1.1,1.1,0,1,0,2.194,0V31.779a2.116,2.116,0,0,0-1.614-2.052ZM31.858,2.194H60.692a3.391,3.391,0,0,0-.137.872,3.217,3.217,0,0,0-1.024-.122,3.094,3.094,0,0,0-2.923,3.122v9.452l-1.115-1.055a3.222,3.222,0,0,0-4.661.248,2.667,2.667,0,0,0-.316,2.987H42.783a1.1,1.1,0,0,0,0,2.194H52.2a5.459,5.459,0,0,1,.523,1.088,10.121,10.121,0,0,0,2.965,4.373,2.58,2.58,0,0,1,.916,1.967v2.407a2.116,2.116,0,0,0-1.614,2.052V52.2a5.458,5.458,0,0,1-1.087.523,10.118,10.118,0,0,0-4.373,2.965,2.58,2.58,0,0,1-1.967.916H45.159a2.116,2.116,0,0,0-2.052-1.614H22.683a5.463,5.463,0,0,1-.523-1.088,10.121,10.121,0,0,0-2.965-4.373,2.579,2.579,0,0,1-.916-1.967V45.159a2.116,2.116,0,0,0,1.614-2.052V22.683a5.457,5.457,0,0,1,1.087-.523,10.118,10.118,0,0,0,4.373-2.965,2.58,2.58,0,0,1,1.967-.916h2.407a2.116,2.116,0,0,0,2.052,1.614h5.885a1.1,1.1,0,1,0,0-2.194H31.859c0-1.582,0-13.764,0-15.5ZM2.194,43.027V14.194a3.406,3.406,0,0,0,.872.137,3.076,3.076,0,0,0,3,3.947h9.452l-1.055,1.115a3.222,3.222,0,0,0,.01,4.436,2.672,2.672,0,0,0,3.225.541V43.027H2.194ZM3.07,10.386H15.892a1.1,1.1,0,0,0,0-2.194H6.011a.875.875,0,0,1-.875-.92.915.915,0,0,1,.931-.832h9.826a1.1,1.1,0,0,0,0-2.194H8.538a.875.875,0,0,1-.875-.92.915.915,0,0,1,.931-.833H20.1a7.3,7.3,0,0,1,2.911.6,8.968,8.968,0,0,0,3.578.714h3.08V16.084H27.32a4.77,4.77,0,0,0-3.639,1.69,7.923,7.923,0,0,1-3.424,2.314,7.789,7.789,0,0,0-2.434,1.391l-1.074.9c-.426.356-.941-.149-.972-.717a1.03,1.03,0,0,1,.279-.759l2.024-2.139a1.588,1.588,0,0,0-1.153-2.678H6.066a.915.915,0,0,1-.931-.832.876.876,0,0,1,.875-.92h9.882a1.1,1.1,0,0,0,0-2.194H3.126a.916.916,0,0,1-.931-.833.875.875,0,0,1,.875-.92Zm4.2,59.365a.915.915,0,0,1-.832-.931V58.994a1.1,1.1,0,1,0-2.194,0v7.354a.876.876,0,0,1-.92.875.915.915,0,0,1-.833-.931v-11.5a7.3,7.3,0,0,1,.6-2.911A8.969,8.969,0,0,0,3.808,48.3v-3.08H16.084v2.345a4.77,4.77,0,0,0,1.69,3.639,7.924,7.924,0,0,1,2.314,3.424,7.794,7.794,0,0,0,1.391,2.434l.9,1.073a.481.481,0,0,1,.008.614,1.025,1.025,0,0,1-1.484.079L18.762,56.8a1.587,1.587,0,0,0-2.678,1.153V68.82a.915.915,0,0,1-.832.931.876.876,0,0,1-.92-.875V58.994a1.1,1.1,0,1,0-2.194,0V71.76a.916.916,0,0,1-.833.931.876.876,0,0,1-.92-.875V58.994a1.1,1.1,0,1,0-2.194,0v9.882a.876.876,0,0,1-.921.875Zm35.756,2.941H14.194a3.392,3.392,0,0,0,.137-.872,3.076,3.076,0,0,0,3.947-3V59.367l1.115,1.055a3.22,3.22,0,0,0,4.661-.248,2.663,2.663,0,0,0,.316-2.987H43.027C43.027,58.769,43.027,70.951,43.027,72.692ZM68.819,58.8a.915.915,0,0,1,.931.832.876.876,0,0,1-.875.92H58.994a1.1,1.1,0,0,0,0,2.194H71.76a.916.916,0,0,1,.931.833.876.876,0,0,1-.875.92H58.994a1.1,1.1,0,0,0,0,2.194h9.882a.875.875,0,0,1,.875.92.915.915,0,0,1-.931.832H58.994a1.1,1.1,0,0,0,0,2.194h7.354a.875.875,0,0,1,.875.92.915.915,0,0,1-.931.833h-11.5a7.3,7.3,0,0,1-2.911-.6,8.968,8.968,0,0,0-3.578-.714h-3.08V58.8h2.345a4.771,4.771,0,0,0,3.639-1.69A7.923,7.923,0,0,1,54.629,54.8a7.789,7.789,0,0,0,2.434-1.391l1.073-.9a.481.481,0,0,1,.614-.008,1.026,1.026,0,0,1,.079,1.484l-.675.713L56.8,56.124A1.587,1.587,0,0,0,57.957,58.8H68.819ZM58.8,29.665V27.32a4.769,4.769,0,0,0-1.69-3.639A7.924,7.924,0,0,1,54.8,20.257a10.3,10.3,0,0,0-2.289-3.507.481.481,0,0,1-.008-.614,1.024,1.024,0,0,1,1.484-.079l2.139,2.024A1.587,1.587,0,0,0,58.8,16.928V6.066a.915.915,0,0,1,.832-.931.876.876,0,0,1,.92.875v9.882a1.1,1.1,0,1,0,2.194,0V3.126A.916.916,0,0,1,63.58,2.2a.875.875,0,0,1,.92.875V15.892a1.1,1.1,0,1,0,2.194,0V6.011a.876.876,0,0,1,.92-.875.915.915,0,0,1,.832.931v9.826a1.1,1.1,0,0,0,2.194,0V8.538a.876.876,0,0,1,.92-.875.915.915,0,0,1,.832.931V20.1a7.3,7.3,0,0,1-.6,2.911,8.969,8.969,0,0,0-.714,3.578v3.08Z" transform="translate(0 0)"/>
  </g>
</svg>
