<svg xmlns="http://www.w3.org/2000/svg" width="68.861" height="75.216" viewBox="0 0 68.861 75.216">
  <g id="smartphone_1_" data-name="smartphone (1)" transform="translate(-21.491)">
    <g id="Group_1803" data-name="Group 1803" transform="translate(22.601 1.109)">
      <path id="Path_1529" data-name="Path 1529" d="M35.694,111.465l-5.468-4.441a3.332,3.332,0,0,1,4.2-5.174l1.267,1.029,6.49,5.674-2.814,5.921Z" transform="translate(-28.994 -87.265)" fill="#fed2a4"/>
      <g id="Group_1802" data-name="Group 1802" transform="translate(0.68)">
        <g id="Group_1799" data-name="Group 1799" transform="translate(6.021)">
          <path id="Path_1530" data-name="Path 1530" d="M74.312,63.31a4.84,4.84,0,0,0,4.84,4.84h25.554a3.965,3.965,0,0,0,3.965-3.965V12.34a4.84,4.84,0,0,0-4.84-4.84H79.152a4.84,4.84,0,0,0-4.84,4.84Z" transform="translate(-74.312 -7.5)" fill="#a79ba7"/>
        </g>
        <path id="Path_1531" data-name="Path 1531" d="M74.934,160.64c-.209,0-.416.012-.622.032v30.893a6.279,6.279,0,0,0,7.125-1.909l.189-.233a6.3,6.3,0,0,0,.786-6.7,6.371,6.371,0,0,0,.5-.542l.105-.13a6.3,6.3,0,0,0,.822-6.611,6.376,6.376,0,0,0,.589-.629l.087-.107a6.289,6.289,0,0,0-.918-8.847l-4.7-3.813a6.3,6.3,0,0,0-3.963-1.407Z" transform="translate(-68.291 -137.998)" fill="#918291"/>
        <path id="Path_1532" data-name="Path 1532" d="M226.859,188.285V159.057l-4.211-4.468a4.645,4.645,0,0,0-6.881.133l-.275.315a9.2,9.2,0,0,0-.321,11.679l4.921,6.313-5.311,9.318a13.522,13.522,0,0,0-1.5,9.42l.1.482h9.512a3.964,3.964,0,0,0,3.965-3.965Z" transform="translate(-186.48 -131.599)" fill="#918291"/>
        <g id="Group_1800" data-name="Group 1800" transform="translate(10.456 4.435)">
          <path id="Path_1533" data-name="Path 1533" d="M129.8,37.9a.4.4,0,0,0-.4-.4h-5.409a.7.7,0,0,0-.668.488l-.122.385a1.682,1.682,0,0,1-1.6,1.173h-8.57a1.682,1.682,0,0,1-1.6-1.173l-.122-.385a.7.7,0,0,0-.668-.489h-5.913a.4.4,0,0,0-.4.4v50.97a.4.4,0,0,0,.4.4H129.8Z" transform="translate(-104.313 -37.499)" fill="#f9f7f8"/>
        </g>
        <path id="Path_1534" data-name="Path 1534" d="M213.409,187.814h9.358V154.368a4.642,4.642,0,0,0-6.656.354l-.275.315a9.2,9.2,0,0,0-.321,11.679l4.921,6.313-5.311,9.318A13.521,13.521,0,0,0,213.409,187.814Z" transform="translate(-186.823 -131.599)" fill="#efedef"/>
        <path id="Path_1535" data-name="Path 1535" d="M104.312,169.373v29.655A6.269,6.269,0,0,0,107,197.1l.189-.233a6.3,6.3,0,0,0,.786-6.7,6.375,6.375,0,0,0,.5-.542l.105-.13a6.3,6.3,0,0,0,.822-6.611,6.377,6.377,0,0,0,.589-.629l.087-.107a6.289,6.289,0,0,0-.918-8.847l-4.7-3.813c-.049-.04-.1-.078-.149-.116Z" transform="translate(-93.856 -145.44)" fill="#efedef"/>
        <g id="Group_1801" data-name="Group 1801" transform="translate(0 24.488)">
          <path id="Path_1536" data-name="Path 1536" d="M268.787,220.815l-12.8-15.053a2.677,2.677,0,0,1-.637-1.734V198.32a14.513,14.513,0,0,0-3.952-9.954l-13.86-14.706a1.688,1.688,0,0,0-2.5.048l-.275.315a6.224,6.224,0,0,0-.218,7.918l5.138,6.59a2.432,2.432,0,0,1,.195,2.7l-5.485,9.623a10.572,10.572,0,0,0-1.171,7.361l.409,1.99a10.571,10.571,0,0,0,8.668,8.309l1.959,2.556a1.453,1.453,0,0,0,1.153.569h22.991a.5.5,0,0,0,.382-.825Z" transform="translate(-203.525 -173.13)" fill="#fed2a4"/>
          <path id="Path_1537" data-name="Path 1537" d="M61.3,190.48l-4.7-3.813a3.332,3.332,0,0,1-.486-4.688l.087-.107a3.332,3.332,0,0,1,4.688-.486l4.7,3.813a3.332,3.332,0,0,1,.486,4.688l-.087.107a3.333,3.333,0,0,1-4.688.486Z" transform="translate(-52.156 -179.53)" fill="#fed2a4"/>
          <path id="Path_1538" data-name="Path 1538" d="M50.826,240.008l-4.735-3.846a3.332,3.332,0,0,1-.486-4.688l.1-.129a3.332,3.332,0,0,1,4.688-.486l4.735,3.846a3.332,3.332,0,0,1,.486,4.688l-.1.129A3.333,3.333,0,0,1,50.826,240.008Z" transform="translate(-43.193 -221.689)" fill="#fed2a4"/>
          <path id="Path_1539" data-name="Path 1539" d="M39.752,289.041l-4.93-4a3.332,3.332,0,0,1-.486-4.688l.189-.233a3.332,3.332,0,0,1,4.688-.486l4.93,4a3.332,3.332,0,0,1,.486,4.688l-.189.233A3.333,3.333,0,0,1,39.752,289.041Z" transform="translate(-33.59 -263.249)" fill="#fed2a4"/>
        </g>
        <path id="Path_1540" data-name="Path 1540" d="M144.65,293.638a1.434,1.434,0,0,0-1.434,1.434v4.745a1.434,1.434,0,0,0,1.434,1.434h12.144a1.067,1.067,0,0,0,1.067-1.068v-5.477a1.067,1.067,0,0,0-1.067-1.067H144.65Z" transform="translate(-127.008 -251.333)" fill="#fe5c4f"/>
      </g>
    </g>
    <g id="Group_1804" data-name="Group 1804" transform="translate(21.492)">
      <path id="Path_1541" data-name="Path 1541" d="M48.673,86.215H34.141a3.736,3.736,0,0,1-3.732-3.732V78.4a4.416,4.416,0,0,0,1,.118,4.473,4.473,0,0,0,1.216-.168v4.136A1.516,1.516,0,0,0,34.141,84H48.382a1.109,1.109,0,1,0,0-2.218H34.845V76.9l.023-.027a4.447,4.447,0,0,0-.357-5.988,4.436,4.436,0,0,0,1.526-7.342,4.439,4.439,0,0,0,1.235-7.6l-2.427-1.971V32.218h4.91l.032.1a2.78,2.78,0,0,0,2.66,1.946h8.57a2.781,2.781,0,0,0,2.66-1.947l.032-.1h4.407V47.606a1.109,1.109,0,0,0,2.218,0V31.514A1.515,1.515,0,0,0,58.819,30H53.41a1.8,1.8,0,0,0-1.725,1.262l-.122.385a.571.571,0,0,1-.546.4h-8.57a.571.571,0,0,1-.546-.4l-.122-.385A1.8,1.8,0,0,0,40.054,30H34.141a1.516,1.516,0,0,0-1.514,1.514V52.176a4.4,4.4,0,0,0-2.218-.858V40.032a1.109,1.109,0,0,0-2.217-.011,4.442,4.442,0,0,0-5.059,7.273L28.192,51.4v.271a4.442,4.442,0,0,0-1.309,7.253,4.442,4.442,0,0,0-1.522,7.345,4.438,4.438,0,0,0-1.236,7.6l4.067,3.3v5.31a5.956,5.956,0,0,0,5.949,5.949H48.673a1.109,1.109,0,0,0,0-2.218ZM24.532,45.571a2.224,2.224,0,1,1,2.8-3.452l.857.7v5.729Zm3.72,8.766a2.21,2.21,0,0,1,1.5-.81,2.254,2.254,0,0,1,.234-.012,2.208,2.208,0,0,1,1.4.5l4.5,3.65a2.224,2.224,0,1,1-2.8,3.452l-4.5-3.65a2.223,2.223,0,0,1-.325-3.128ZM26.725,61.68a2.219,2.219,0,0,1,3.069-.368l1.879,1.526c.021.017.044.032.065.048l2.61,2.119a2.224,2.224,0,1,1-2.8,3.452l-4.5-3.65A2.226,2.226,0,0,1,26.725,61.68Zm-2.012,8.973a2.222,2.222,0,0,1,3.546-2.005l1.887,1.532c.022.018.045.032.067.049l2.609,2.119a2.224,2.224,0,1,1-2.8,3.452l-4.5-3.65A2.208,2.208,0,0,1,24.713,70.653Z" transform="translate(-21.492 -25.565)"/>
      <path id="Path_1542" data-name="Path 1542" d="M67.921,10.85A1.109,1.109,0,0,0,69.03,9.742V5.949a3.736,3.736,0,0,1,3.732-3.732H97.439a3.736,3.736,0,0,1,3.731,3.732V26.411a1.109,1.109,0,1,0,2.218,0V5.949A5.956,5.956,0,0,0,97.439,0H72.761a5.956,5.956,0,0,0-5.949,5.949V9.741a1.109,1.109,0,0,0,1.109,1.109Z" transform="translate(-60.111)"/>
      <path id="Path_1543" data-name="Path 1543" d="M430.6,442.835l-7.565-8.9a1.109,1.109,0,0,0-1.689,1.436l7.565,8.9a1.109,1.109,0,1,0,1.69-1.436Z" transform="translate(-361.998 -369.446)"/>
      <path id="Path_1544" data-name="Path 1544" d="M236.788,211.447a1.108,1.108,0,0,0-.7-.42,9.513,9.513,0,0,1-7.759-7.437l-.409-1.99a9.457,9.457,0,0,1,1.048-6.589l5.485-9.623a3.529,3.529,0,0,0-.284-3.93l-5.138-6.59a5.123,5.123,0,0,1,.179-6.507l.275-.315a.574.574,0,0,1,.425-.2.566.566,0,0,1,.433.182l4.9,5.2a1.109,1.109,0,1,0,1.614-1.521l-4.9-5.2a2.8,2.8,0,0,0-4.143.08l-.275.315a7.345,7.345,0,0,0-.257,9.328l5.138,6.59a1.319,1.319,0,0,1,.106,1.469l-5.485,9.623a11.674,11.674,0,0,0-1.294,8.133l.409,1.99a11.746,11.746,0,0,0,9.134,9.1l2.136,2.786a1.109,1.109,0,1,0,1.76-1.349Z" transform="translate(-195.343 -141.14)"/>
      <path id="Path_1545" data-name="Path 1545" d="M323.517,251.519a1.57,1.57,0,0,1-.373-1.016v-5.709a15.564,15.564,0,0,0-4.253-10.715l-5.715-6.064a1.109,1.109,0,0,0-1.614,1.521l5.715,6.064a13.354,13.354,0,0,1,3.65,9.193V250.5a3.79,3.79,0,0,0,.9,2.452l2.861,3.366a1.109,1.109,0,1,0,1.69-1.436Z" transform="translate(-268.417 -194.007)"/>
      <path id="Path_1546" data-name="Path 1546" d="M162.483,81.718a5.158,5.158,0,1,0,2.412,9.714l1.7,1.7a1.109,1.109,0,0,0,1.568-1.568l-1.576-1.576a5.154,5.154,0,0,0-4.107-8.273Zm-2.94,5.158a2.94,2.94,0,1,1,2.94,2.94A2.943,2.943,0,0,1,159.544,86.876Z" transform="translate(-137.243 -69.636)"/>
      <path id="Path_1547" data-name="Path 1547" d="M146.931,293.751h-8.673a.325.325,0,0,1-.325-.325v-4.745a.325.325,0,0,1,.325-.325H149.39a1.109,1.109,0,1,0,0-2.218H138.259a2.546,2.546,0,0,0-2.543,2.543v4.745a2.546,2.546,0,0,0,2.543,2.543h8.673a1.109,1.109,0,1,0,0-2.218Z" transform="translate(-118.828 -243.834)"/>
    </g>
  </g>
</svg>
