<svg xmlns="http://www.w3.org/2000/svg" width="75" height="75" viewBox="0 0 75 75">
  <g id="customer-service" transform="translate(0 0)">
    <g id="Group_1762" data-name="Group 1762" transform="translate(0 1.098)">
      <g id="Group_1754" data-name="Group 1754" transform="translate(1.099 0)">
        <g id="Group_1753" data-name="Group 1753">
          <path id="Path_1271" data-name="Path 1271" d="M7.5,19.142a11.641,11.641,0,1,1,19.292,8.773.505.505,0,0,0,.074.816l2.194,1.3a.4.4,0,0,1-.206.753l-9.933,0A11.641,11.641,0,0,1,7.5,19.142Z" transform="translate(-7.5 -7.501)" fill="#7acaa6"/>
        </g>
      </g>
      <path id="Path_1272" data-name="Path 1272" d="M84.006,30.029l-2.194-1.3a.5.5,0,0,1-.078-.814A11.641,11.641,0,0,0,74.435,7.5a11.735,11.735,0,0,0-2.559.2,11.638,11.638,0,0,1,7.011,18.573A2.514,2.514,0,0,0,79.566,30l.046.027a.4.4,0,0,1-.193.752H83.8A.4.4,0,0,0,84.006,30.029Z" transform="translate(-61.347 -7.5)" fill="#57be92"/>
      <g id="Group_1760" data-name="Group 1760" transform="translate(17.53 0)">
        <g id="Group_1757" data-name="Group 1757" transform="translate(0 0)">
          <path id="Path_1273" data-name="Path 1273" d="M195.387,49.756H168.978a7.788,7.788,0,0,1-5.993-12.762l.234-.282a12.457,12.457,0,0,0,2.872-7.956V23.662a16.162,16.162,0,0,1,32.325,0v5.265a12.458,12.458,0,0,0,2.929,8.024A7.788,7.788,0,0,1,195.387,49.756Z" transform="translate(-155.095 -7.5)" fill="#c59191"/>
          <path id="Path_1274" data-name="Path 1274" d="M173.844,264.828v17.46H119.67V264.96a9.748,9.748,0,0,1,5.968-8.985l8.744-3.8,2.946-1.28a6.118,6.118,0,0,0,3.68-5.61V244.15h11.5v1.072a6.119,6.119,0,0,0,3.708,5.624l11.829,5.07A9.749,9.749,0,0,1,173.844,264.828Z" transform="translate(-119.67 -209.484)" fill="#fff"/>
          <path id="Path_1275" data-name="Path 1275" d="M216.77,256.34a41.891,41.891,0,0,0,24.752-.232l1.426-3.4-4.343-1.861a6.119,6.119,0,0,1-3.708-5.624v-1.072H223.4v1.13a6.119,6.119,0,0,1-3.679,5.611l-3.517,1.529Z" transform="translate(-202.059 -209.489)" fill="#ffcebf"/>
          <path id="Path_1276" data-name="Path 1276" d="M397.987,302.221l-8.91-3.819h0v30.19h14.711V311.133A9.748,9.748,0,0,0,397.987,302.221Z" transform="translate(-349.611 -255.789)" fill="#8795de"/>
          <path id="Path_1277" data-name="Path 1277" d="M134.381,298.91v30.116H119.67V311.7a9.748,9.748,0,0,1,5.968-8.985Z" transform="translate(-119.67 -256.223)" fill="#8795de"/>
          <g id="Group_1755" data-name="Group 1755" transform="translate(25.659 28.079)">
            <path id="Path_1278" data-name="Path 1278" d="M299.53,203.433h-2.575a2.122,2.122,0,0,1,0-4.244h2.575a2.122,2.122,0,0,1,0,4.244Z" transform="translate(-294.834 -199.189)" fill="#fff"/>
            <path id="Path_1279" data-name="Path 1279" d="M303.357,206.688a1.023,1.023,0,1,0,0,2.046h2.575a1.023,1.023,0,1,0,0-2.046Z" transform="translate(-301.235 -205.59)"/>
          </g>
          <g id="Group_1756" data-name="Group 1756" transform="translate(26.026 53.612)">
            <circle id="Ellipse_10" data-name="Ellipse 10" cx="1.061" cy="1.061" r="1.061"/>
          </g>
        </g>
        <g id="Group_1759" data-name="Group 1759" transform="translate(10.996)">
          <path id="Path_1280" data-name="Path 1280" d="M271.943,250.468a9.674,9.674,0,0,0,3.734-.745,6.118,6.118,0,0,1-1.97-4.5v-1.072H262.2v1.13a6.108,6.108,0,0,1-.536,2.5,9.671,9.671,0,0,0,6.694,2.682Z" transform="translate(-251.865 -209.489)" fill="#ffb09e"/>
          <path id="Path_1281" data-name="Path 1281" d="M249.1,89.238v9.515a9.706,9.706,0,0,1-9.706,9.706h-3.58a9.706,9.706,0,0,1-9.706-9.706V89.238a6.315,6.315,0,0,1,6.314-6.314h10.363A6.315,6.315,0,0,1,249.1,89.238Z" transform="translate(-221.511 -71.876)" fill="#ffcebf"/>
          <path id="Path_1282" data-name="Path 1282" d="M299.53,203.433h-2.575a2.122,2.122,0,0,1,0-4.244h2.575a2.122,2.122,0,0,1,0,4.244Z" transform="translate(-280.172 -171.11)" fill="#685e68"/>
          <g id="Group_1758" data-name="Group 1758">
            <path id="Path_1283" data-name="Path 1283" d="M320.15,29.368c.247-3.109,3.223-5.172,6.072-6.241A16.153,16.153,0,0,1,334.089,37v1.111c-.261.055-.52.1-.776.141a13.084,13.084,0,0,1-3.819,0C323.611,37.468,319.852,33.123,320.15,29.368Z" transform="translate(-301.765 -20.838)" fill="#b98080"/>
            <path id="Path_1284" data-name="Path 1284" d="M210.9,7.5a16.09,16.09,0,0,1,9.723,3.251,28.827,28.827,0,0,1-10.26,10.43,28.6,28.6,0,0,1-10.887,3.733h-4.737V23.662A16.162,16.162,0,0,1,210.9,7.5Z" transform="translate(-194.739 -7.5)" fill="#c59191"/>
          </g>
        </g>
      </g>
      <path id="Path_1285" data-name="Path 1285" d="M212.117,383.728H176.948l-1.94-18.3A2.2,2.2,0,0,1,177.193,363h34.678a2.2,2.2,0,0,1,2.185,2.429Z" transform="translate(-149.362 -310.926)" fill="#efedef"/>
      <path id="Path_1286" data-name="Path 1286" d="M401.129,363h-4.395a2.2,2.2,0,0,1,2.185,2.429l-1.94,18.3h4.395l1.94-18.3A2.2,2.2,0,0,0,401.129,363Z" transform="translate(-338.619 -310.925)" fill="#e5e1e5"/>
      <g id="Group_1761" data-name="Group 1761" transform="translate(0 71.704)">
        <path id="Path_1287" data-name="Path 1287" d="M73.9,499.2H1.1a1.1,1.1,0,1,1,0-2.2H73.9a1.1,1.1,0,0,1,0,2.2Z" transform="translate(0 -497)" fill="#c9bfc8"/>
      </g>
      <circle id="Ellipse_11" data-name="Ellipse 11" cx="3.076" cy="3.076" r="3.076" transform="translate(42.095 59.363)" fill="#c9bfc8"/>
    </g>
    <path id="Path_1288" data-name="Path 1288" d="M17.135,13.838a1.1,1.1,0,1,0-1.1-1.1A1.1,1.1,0,0,0,17.135,13.838Zm-8.789,0a1.1,1.1,0,1,0-1.1-1.1A1.1,1.1,0,0,0,8.346,13.838Zm4.395,0a1.1,1.1,0,1,0-1.1-1.1A1.1,1.1,0,0,0,12.74,13.838ZM12.5,25.477h.02l9.933,0h0a1.5,1.5,0,0,0,.766-2.8l-1.511-.894A12.74,12.74,0,1,0,0,12.74,12.876,12.876,0,0,0,12.5,25.477ZM5.339,5.231A10.466,10.466,0,0,1,12.9,2.2a10.542,10.542,0,0,1,6.773,18.487,1.6,1.6,0,0,0,.237,2.59l.011.006-7.387,0A10.542,10.542,0,0,1,5.339,5.231ZM73.9,72.8H72.8V56.442a10.86,10.86,0,0,0-6.465-9.922l-5.79-2.482A8.673,8.673,0,0,0,64.265,41.7a9.1,9.1,0,0,0,2.459-6.176,8.74,8.74,0,0,0-2.1-5.684,11.374,11.374,0,0,1-2.67-7.317V17.26a17.261,17.261,0,0,0-34.522,0v5.093a11.874,11.874,0,0,1-2.854,7.537,8.9,8.9,0,0,0,4.247,14.186l-5.75,2.5a10.825,10.825,0,0,0-6.64,10V69.507a1.1,1.1,0,0,0,2.2,0V56.574A8.636,8.636,0,0,1,23.936,48.6l7.207-3.134v6.613H27.832a3.3,3.3,0,0,0-3.277,3.643L26.365,72.8H1.1a1.1,1.1,0,1,0,0,2.2H73.9a1.1,1.1,0,0,0,0-2.2ZM62.939,31.256a6.569,6.569,0,0,1,1.588,4.269,6.883,6.883,0,0,1-1.861,4.669,6.577,6.577,0,0,1-4.844,2.061H56.39l-1.881-.806a5.013,5.013,0,0,1-3-3.954,10.813,10.813,0,0,0,5.7-9.52V19.718c.322.022.643.034.963.034a14,14,0,0,0,1.577-.089v2.863a13.573,13.573,0,0,0,3.186,8.732ZM44.955,48.6A40.7,40.7,0,0,1,33.34,47.122V44.507l.318-.138.008,0,1.96-.852a7.215,7.215,0,0,0,4.191-5.161,10.768,10.768,0,0,0,3.012.43h3.58a10.768,10.768,0,0,0,3.023-.433,7.211,7.211,0,0,0,4.213,5.121l2.092.9,0,0,.155.066v2.472A40.782,40.782,0,0,1,44.955,48.6Zm10.939.594v2.881H33.34V49.4A42.941,42.941,0,0,0,44.24,50.8q.377,0,.754-.007a42.973,42.973,0,0,0,10.9-1.6Zm3.858-31.747a12.2,12.2,0,0,1-8.788-2.223,1.1,1.1,0,1,0-1.346,1.737,13.274,13.274,0,0,0,5.4,2.452v5.981a8.037,8.037,0,0,1-2.441,3.3,8.424,8.424,0,0,1-1.822,1.146,3.223,3.223,0,0,0-2.867-1.757H45.311a3.22,3.22,0,0,0,0,6.441h2.575A3.226,3.226,0,0,0,51,32.114a19.606,19.606,0,0,0,3.867-2.558,8.62,8.62,0,0,1-8.46,7.028h-3.58a8.617,8.617,0,0,1-8.607-8.607V19.484a29.461,29.461,0,0,0,10.489-3.76A29.844,29.844,0,0,0,54.7,6a15.055,15.055,0,0,1,5.057,11.445ZM48.908,31.3a1.024,1.024,0,0,1-1.023,1.02H45.31a1.023,1.023,0,0,1,0-2.046h2.575a1.024,1.024,0,0,1,1.023,1.02ZM29.625,17.26a15.068,15.068,0,0,1,23.321-12.6,27.663,27.663,0,0,1-9.355,9.176,27.317,27.317,0,0,1-10.4,3.58H29.625ZM25.357,38.41a6.63,6.63,0,0,1,.906-7.115,14.033,14.033,0,0,0,3.362-8.942V19.611h2.4v8.366A10.814,10.814,0,0,0,37.729,37.5a5.016,5.016,0,0,1-2.979,4L33,42.256H31.412a6.63,6.63,0,0,1-6.055-3.847ZM63.6,55.487,61.767,72.8H28.575L26.739,55.487a1.1,1.1,0,0,1,1.092-1.214H62.51A1.1,1.1,0,0,1,63.6,55.487Zm7,17.316H63.976l1.811-17.084a3.3,3.3,0,0,0-3.277-3.643H58.091V47.733c0-.013,0-.027,0-.04V45.376l7.368,3.158a8.657,8.657,0,0,1,5.146,7.908ZM45.171,59.363a4.175,4.175,0,1,0,4.175,4.175A4.18,4.18,0,0,0,45.171,59.363Zm0,6.152a1.978,1.978,0,1,1,1.978-1.978A1.98,1.98,0,0,1,45.171,65.515Z" transform="translate(0 0)"/>
  </g>
</svg>
