<svg id="web-browser" xmlns="http://www.w3.org/2000/svg" width="70.982" height="70.982" viewBox="0 0 70.982 70.982">
  <g id="Group_1809" data-name="Group 1809" transform="translate(1.04 1.04)">
    <g id="Group_1807" data-name="Group 1807" transform="translate(8.676)">
      <g id="Group_1806" data-name="Group 1806">
        <g id="Group_1805" data-name="Group 1805">
          <path id="Path_1548" data-name="Path 1548" d="M118.976,66.573H72.738a2.656,2.656,0,0,1-2.656-2.656V10.156A2.656,2.656,0,0,1,72.738,7.5h46.238a2.656,2.656,0,0,1,2.656,2.656V63.917A2.656,2.656,0,0,1,118.976,66.573Z" transform="translate(-70.082 -7.5)" fill="#fff7e8"/>
          <path id="Path_1549" data-name="Path 1549" d="M388.305,7.5H382.76a2.656,2.656,0,0,1,2.656,2.656V63.917a2.656,2.656,0,0,1-2.656,2.656h5.545a2.656,2.656,0,0,0,2.656-2.656V10.156A2.656,2.656,0,0,0,388.305,7.5Z" transform="translate(-339.412 -7.5)" fill="#fff1d6"/>
          <path id="Path_1550" data-name="Path 1550" d="M121.632,16.957H70.082v-6.8A2.656,2.656,0,0,1,72.738,7.5h46.238a2.656,2.656,0,0,1,2.656,2.656Z" transform="translate(-70.082 -7.5)" fill="#59a1a5"/>
          <path id="Path_1551" data-name="Path 1551" d="M388.305,7.5H382.76a2.656,2.656,0,0,1,2.656,2.656v6.8h5.545v-6.8A2.656,2.656,0,0,0,388.305,7.5Z" transform="translate(-339.412 -7.5)" fill="#419296"/>
        </g>
      </g>
    </g>
    <g id="Group_1808" data-name="Group 1808" transform="translate(0 53.467)">
      <path id="Path_1552" data-name="Path 1552" d="M68.685,408.6H15.217a7.717,7.717,0,1,1,0-15.435H68.685a7.717,7.717,0,0,1,0,15.435Z" transform="translate(-7.5 -393.166)" fill="#ffd88f"/>
      <path id="Path_1553" data-name="Path 1553" d="M414.378,393.166h-5.545a7.717,7.717,0,1,1,0,15.435h5.545a7.717,7.717,0,0,0,0-15.435Z" transform="translate(-353.194 -393.166)" fill="#ffc963"/>
    </g>
  </g>
  <g id="Group_1810" data-name="Group 1810" transform="translate(0 0)">
    <path id="Path_1554" data-name="Path 1554" d="M103.594,34.005a1.04,1.04,0,0,0,0,2.08A1.04,1.04,0,0,0,103.594,34.005Z" transform="translate(-88.367 -29.291)"/>
    <path id="Path_1555" data-name="Path 1555" d="M135.741,34.005a1.04,1.04,0,0,0,0,2.08A1.04,1.04,0,0,0,135.741,34.005Z" transform="translate(-116.058 -29.291)"/>
    <path id="Path_1556" data-name="Path 1556" d="M167.888,34.005a1.04,1.04,0,0,0,0,2.08A1.04,1.04,0,0,0,167.888,34.005Z" transform="translate(-143.748 -29.291)"/>
    <path id="Path_1557" data-name="Path 1557" d="M62.306,53.469V3.7A3.7,3.7,0,0,0,58.61,0H12.372a3.7,3.7,0,0,0-3.7,3.7V15.8a1.04,1.04,0,0,0,2.08,0V11.537h49.47V53.467H10.756V21.748a1.04,1.04,0,0,0-2.08,0V53.469a8.756,8.756,0,0,0,.081,17.512H46.719a1.04,1.04,0,0,0,0-2.08H8.757a6.678,6.678,0,0,1,0-13.355H62.224a6.678,6.678,0,0,1,0,13.355H52.26a1.04,1.04,0,0,0,0,2.08h9.965a8.756,8.756,0,0,0,.081-17.512ZM10.756,9.457V3.7A1.618,1.618,0,0,1,12.372,2.08H58.61A1.618,1.618,0,0,1,60.226,3.7V9.457Z" transform="translate(0 0)"/>
    <path id="Path_1558" data-name="Path 1558" d="M407.158,415.389a3.85,3.85,0,1,0,2,7.137l1.554,1.554a1.04,1.04,0,0,0,1.471-1.471L410.578,421a3.847,3.847,0,0,0-3.42-5.614Zm-1.77,3.85a1.771,1.771,0,1,1,1.771,1.771A1.773,1.773,0,0,1,405.388,419.239Z" transform="translate(-347.395 -357.801)"/>
    <path id="Path_1559" data-name="Path 1559" d="M167.849,202.182a1.04,1.04,0,0,0-1.471,0l-4.349,4.349a1.04,1.04,0,0,0,0,1.471l4.349,4.349a1.04,1.04,0,0,0,1.47-1.471l-3.614-3.614,3.614-3.614A1.04,1.04,0,0,0,167.849,202.182Z" transform="translate(-139.304 -173.89)"/>
    <path id="Path_1560" data-name="Path 1560" d="M304.19,212.334a1.04,1.04,0,0,0,1.471,0l4.349-4.349a1.04,1.04,0,0,0,0-1.471l-4.349-4.349a1.04,1.04,0,0,0-1.471,1.471l3.614,3.614-3.614,3.614A1.04,1.04,0,0,0,304.19,212.334Z" transform="translate(-261.754 -173.873)"/>
    <path id="Path_1561" data-name="Path 1561" d="M229.472,186.526a1.04,1.04,0,0,0,1-.744L236.046,167a1.04,1.04,0,0,0-1.993-.592l-5.577,18.78A1.1,1.1,0,0,0,229.472,186.526Z" transform="translate(-196.77 -142.719)"/>
  </g>
</svg>
