<svg id="advertising" xmlns="http://www.w3.org/2000/svg" width="69" height="69.028" viewBox="0 0 69 69.028">
  <g id="Group_1778" data-name="Group 1778" transform="translate(1.013 1.013)">
    <path id="Path_1344" data-name="Path 1344" d="M73,247.966l3.961,6.434v12.863a2.364,2.364,0,0,0,2.364,2.364h3.723a2.364,2.364,0,0,0,2.364-2.364V235.936s-17.771,4.607-17.487,4.748S73,247.966,73,247.966Z" transform="translate(-26.59 -205.083)" fill="#efedef"/>
    <path id="Path_1345" data-name="Path 1345" d="M84.253,282.554v25.03a2.364,2.364,0,0,1-2.364,2.364H78.166c-.035,0-.068,0-.1-.005a2.362,2.362,0,0,0,2.261-2.359V291.793a1.7,1.7,0,0,0-1.929-1.681l-5.007.69-1.548-2.514s-2.412-3.595-3.915-5.733H84.253Z" transform="translate(-25.426 -245.404)" fill="#e5e1e5"/>
    <g id="Group_1777" data-name="Group 1777">
      <g id="XMLID_187_" transform="translate(28.417 11.022)">
        <g id="Group_1774" data-name="Group 1774">
          <path id="Path_1346" data-name="Path 1346" d="M7.607,89.109v45.234l14.037-12.827,20.905-2.881a4.186,4.186,0,0,0,3.614-4.146v-5.8a4.186,4.186,0,0,0-3.614-4.146l-20.905-2.881Z" transform="translate(-7.607 -89.109)" fill="#f9f7f8"/>
        </g>
      </g>
      <path id="Path_1347" data-name="Path 1347" d="M42.549,237.529a4.185,4.185,0,0,0,3.612-4.066c0,.027,0,.054,0,.081v5.8a4.186,4.186,0,0,1-3.614,4.146l-20.905,2.881L7.607,259.2v-5.963L20.2,241.731a6.291,6.291,0,0,1,3.385-1.588Z" transform="translate(20.81 -202.944)" fill="#efedef"/>
      <g id="XMLID_190_" transform="translate(28.417 11.022)">
        <g id="Group_1775" data-name="Group 1775">
          <path id="Path_1348" data-name="Path 1348" d="M241.832,89.109v45.234l6.921-6.325s-.009-31.25,0-32.726Z" transform="translate(-241.832 -89.109)" fill="#efedef"/>
          <path id="Path_1349" data-name="Path 1349" d="M248.753,339.013l-6.921,6.325v-5.963l6.92-6.323C248.753,336.585,248.753,339.013,248.753,339.013Z" transform="translate(-241.832 -300.103)" fill="#e5e1e5"/>
          <path id="Path_1350" data-name="Path 1350" d="M54.477,211.7,59.515,211V196.161l-5.016-.692Z" transform="translate(-27.289 -181.104)" fill="#efedef"/>
          <path id="Path_1351" data-name="Path 1351" d="M54.486,267.031l5.03-.693V272.3L54.477,273Z" transform="translate(-27.29 -242.401)" fill="#e5e1e5"/>
        </g>
      </g>
      <g id="Group_1776" data-name="Group 1776" transform="translate(0)">
        <path id="Path_1352" data-name="Path 1352" d="M321.147,178.965H332.8a4.349,4.349,0,0,1,4.349,4.349v2.55l4.451,2.707a.862.862,0,0,1,0,1.474l-1.827,1.111-2.624,1.6v3.03a4.349,4.349,0,0,1-4.349,4.349h-11.65a4.349,4.349,0,0,1-4.349-4.349V183.314A4.349,4.349,0,0,1,321.147,178.965Z" transform="translate(-316.798 -155.806)" fill="#fee45a"/>
        <path id="Path_1353" data-name="Path 1353" d="M340.667,7.5H356.7a.692.692,0,0,1,.508,1.162l-3.548,3.832v8.691a4.349,4.349,0,0,1-4.349,4.349h-8.64a4.349,4.349,0,0,1-4.349-4.349V11.849A4.349,4.349,0,0,1,340.667,7.5Z" transform="translate(-334.813 -7.5)" fill="#fee45a"/>
        <path id="Path_1354" data-name="Path 1354" d="M340.667,388.092H356.7a.692.692,0,0,0,.508-1.162l-3.548-3.832v-8.691a4.349,4.349,0,0,0-4.349-4.349h-8.64a4.349,4.349,0,0,0-4.349,4.349v9.336A4.349,4.349,0,0,0,340.667,388.092Z" transform="translate(-334.813 -321.09)" fill="#fee45a"/>
      </g>
    </g>
    <path id="Path_1355" data-name="Path 1355" d="M276.139,125.947a2.958,2.958,0,1,0,5.917,0V84.626a2.958,2.958,0,1,0-5.917,0Z" transform="translate(-251.351 -71.651)" fill="#f37c7c"/>
  </g>
  <g id="Group_1779" data-name="Group 1779">
    <path id="Path_1356" data-name="Path 1356" d="M1.117,103.137A1.013,1.013,0,0,1,2.13,104.15v15.31a1.945,1.945,0,1,0,3.891,0V78.139a1.945,1.945,0,1,0-3.891,0v15.04a1.013,1.013,0,0,1-2.026,0V78.139a3.971,3.971,0,0,1,7.913-.477L19.23,87.776l20.6,2.838a5.219,5.219,0,0,1,4.489,5.15v5.8a5.219,5.219,0,0,1-4.489,5.15l-3.658.5v4.754a1.013,1.013,0,1,1-2.026,0V107.5l-9.723,1.34,3.147,5.111a1.012,1.012,0,0,1,.15.531v12.863a1.353,1.353,0,0,0,1.351,1.351h3.723a1.353,1.353,0,0,0,1.351-1.351V116.291a1.013,1.013,0,1,1,2.026,0v11.053a3.381,3.381,0,0,1-3.377,3.377H29.069a3.381,3.381,0,0,1-3.377-3.377V114.767l-3.464-5.627-3,.413L8.042,119.645A3.971,3.971,0,0,1,.1,119.46V104.15A1.013,1.013,0,0,1,1.117,103.137ZM35.96,105.2V92.126l-3.014-.415v13.908Zm6.33-3.638v-5.8a3.185,3.185,0,0,0-2.739-3.143l-1.565-.216v12.519l1.565-.216A3.185,3.185,0,0,0,42.29,101.566Zm-23.645,6.024,3.943-.543h.006L30.92,105.9V91.432L18.645,89.74a1.013,1.013,0,0,1-.54-.251l-5.434-4.9c0,1.165-.006,2.714-.01,4.5A1.013,1.013,0,0,1,11.648,90.1h0a1.013,1.013,0,0,1-1.011-1.015c.006-3.027.012-5.375.014-6.319l-2.6-2.347v36.495l2.588-2.334c0-.032,0-.064,0-.1,0-.354-.008-.869-.011-1.516-.005-1.206-.009-2.959-.009-5.212,0-3.589,0-8.419.014-14.354a1.013,1.013,0,0,1,1.013-1.011h0A1.013,1.013,0,0,1,12.653,93.4c-.02,11.314-.016,16.782-.006,19.359l5.458-4.923a1.01,1.01,0,0,1,.54-.252Z" transform="translate(24.684 -64.151)"/>
    <path id="Path_1357" data-name="Path 1357" d="M314.661,171.465h11.65a5.368,5.368,0,0,1,5.362,5.362v1.981l3.964,2.411a1.875,1.875,0,0,1,0,3.2l-3.964,2.411v2.46a5.368,5.368,0,0,1-5.362,5.362H322.85a1.013,1.013,0,1,1,0-2.026h3.461a3.34,3.34,0,0,0,3.336-3.336v-3.03a1.013,1.013,0,0,1,.487-.865l4.239-2.578-4.239-2.578a1.013,1.013,0,0,1-.487-.865v-2.55a3.34,3.34,0,0,0-3.336-3.336h-11.65a3.34,3.34,0,0,0-3.336,3.336v12.466a3.34,3.34,0,0,0,3.336,3.336h3.873a1.013,1.013,0,0,1,0,2.026h-3.873a5.368,5.368,0,0,1-5.362-5.362V176.827A5.368,5.368,0,0,1,314.661,171.465Z" transform="translate(-309.299 -148.306)"/>
    <path id="Path_1358" data-name="Path 1358" d="M348.193,6.4V14.7a5.368,5.368,0,0,1-5.362,5.362h-8.64a5.368,5.368,0,0,1-5.362-5.362V5.362A5.368,5.368,0,0,1,334.19,0h16.03a1.7,1.7,0,0,1,1.251,2.863Zm-14-4.378a3.34,3.34,0,0,0-3.336,3.336V14.7a3.34,3.34,0,0,0,3.336,3.336h8.64a3.34,3.34,0,0,0,3.336-3.336V6.007a1.013,1.013,0,0,1,.27-.688l3.049-3.293Z" transform="translate(-327.324 0)"/>
    <path id="Path_1359" data-name="Path 1359" d="M334.19,362.559h8.64a5.368,5.368,0,0,1,5.362,5.362v8.294l3.279,3.541a1.7,1.7,0,0,1-1.251,2.863H334.19a5.368,5.368,0,0,1-5.362-5.362v-9.336A5.368,5.368,0,0,1,334.19,362.559Zm-3.336,14.7a3.34,3.34,0,0,0,3.336,3.336h15.295l-3.049-3.293a1.013,1.013,0,0,1-.27-.688v-8.691a3.34,3.34,0,0,0-3.336-3.336h-8.64a3.34,3.34,0,0,0-3.336,3.336v9.336Z" transform="translate(-327.323 -313.59)"/>
  </g>
</svg>
