<svg xmlns="http://www.w3.org/2000/svg" width="64.336" height="64.337" viewBox="0 0 64.336 64.337">
  <g id="seo" transform="translate(-0.001)">
    <path id="Path_1562" data-name="Path 1562" d="M67.6,69.952H9.849A2.349,2.349,0,0,1,7.5,67.6V9.849A2.349,2.349,0,0,1,9.849,7.5H67.6a2.349,2.349,0,0,1,2.349,2.349V67.6A2.349,2.349,0,0,1,67.6,69.952Zm0,0" transform="translate(-6.558 -6.558)" fill="#f2f2f2"/>
    <path id="Path_1563" data-name="Path 1563" d="M438.844,7.5h-6.75a2.349,2.349,0,0,1,2.349,2.349V67.6a2.349,2.349,0,0,1-2.349,2.349h6.75a2.349,2.349,0,0,0,2.349-2.349V9.849A2.349,2.349,0,0,0,438.844,7.5Zm0,0" transform="translate(-377.798 -6.558)" fill="#cdd6df"/>
    <path id="Path_1564" data-name="Path 1564" d="M67.6,7.5H9.849A2.349,2.349,0,0,0,7.5,9.849v7H69.952v-7A2.349,2.349,0,0,0,67.6,7.5Zm0,0" transform="translate(-6.558 -6.558)" fill="#426175"/>
    <path id="Path_1565" data-name="Path 1565" d="M441.2,16.852v-7A2.349,2.349,0,0,0,438.847,7.5H432.1a2.349,2.349,0,0,1,2.348,2.349v7Zm0,0" transform="translate(-377.801 -6.558)" fill="#2c4456"/>
    <g id="Group_1811" data-name="Group 1811" transform="translate(45.376 4.436)">
      <path id="Path_1566" data-name="Path 1566" d="M363.471,36.483a1.182,1.182,0,1,1-1.182-1.182A1.183,1.183,0,0,1,363.471,36.483Zm0,0" transform="translate(-361.106 -35.301)" fill="#fed066"/>
      <path id="Path_1567" data-name="Path 1567" d="M408.576,36.483a1.182,1.182,0,1,1-1.182-1.182A1.183,1.183,0,0,1,408.576,36.483Zm0,0" transform="translate(-400.543 -35.301)" fill="#fed066"/>
      <path id="Path_1568" data-name="Path 1568" d="M453.682,36.483A1.182,1.182,0,1,1,452.5,35.3,1.183,1.183,0,0,1,453.682,36.483Zm0,0" transform="translate(-439.981 -35.301)" fill="#fed066"/>
    </g>
    <path id="Path_1569" data-name="Path 1569" d="M142.475,139.507a18.964,18.964,0,1,1-18.964-18.964A18.964,18.964,0,0,1,142.475,139.507Zm0,0" transform="translate(-91.409 -105.396)" fill="#fe5c4f"/>
    <path id="Path_1570" data-name="Path 1570" d="M166.046,167.035a15.007,15.007,0,1,1-15.007-15.008A15.007,15.007,0,0,1,166.046,167.035Zm0,0" transform="translate(-118.937 -132.924)" fill="#f2f2f2"/>
    <path id="Path_1571" data-name="Path 1571" d="M242.592,156.433a15,15,0,0,0-13.987-4.012,15.009,15.009,0,0,1,0,29.248,15.008,15.008,0,0,0,13.987-25.236Zm0,0" transform="translate(-199.879 -132.934)" fill="#cdd6df"/>
    <path id="Path_1572" data-name="Path 1572" d="M387.485,401.327l-2.154,2.154a1.143,1.143,0,0,1-1.615,0l-8.8-8.8a1.143,1.143,0,0,1,0-1.615l2.154-2.154a1.142,1.142,0,0,1,1.615,0l8.8,8.8A1.143,1.143,0,0,1,387.485,401.327Zm0,0" transform="translate(-327.513 -341.5)" fill="#f5b556"/>
    <path id="Path_1573" data-name="Path 1573" d="M63.395,120.874a.942.942,0,0,0-.942.942v38.133a1.408,1.408,0,0,1-1.406,1.406H58.681l1.958-1.958a2.084,2.084,0,0,0,0-2.948l-8.8-8.8a2.087,2.087,0,0,0-2.948,0l-.411.411-1.654-1.654a19.872,19.872,0,1,0-1.333,1.333l1.654,1.654-.411.41a2.084,2.084,0,0,0,0,2.948l8.6,8.6H3.292a1.408,1.408,0,0,1-1.406-1.406v-8.2a.942.942,0,0,0-1.885,0v8.2a3.3,3.3,0,0,0,3.291,3.291H61.046a3.3,3.3,0,0,0,3.291-3.291V121.816a.942.942,0,0,0-.942-.942ZM19.358,145.758a18.022,18.022,0,1,1,25.486,0A17.905,17.905,0,0,1,19.358,145.758Zm28.654,5.521a.2.2,0,0,1,.058-.141l2.154-2.154a.2.2,0,0,1,.283,0l8.8,8.8a.2.2,0,0,1,0,.282l-2.154,2.154a.2.2,0,0,1-.283,0l-8.8-8.8A.2.2,0,0,1,48.012,151.279Zm0,0" transform="translate(0 -98.904)"/>
    <path id="Path_1574" data-name="Path 1574" d="M176.906,237.7c0-2.237-4.108-1.365-4.108-4.4,0-1.871,1.567-2.427,2.92-2.427.822,0,2.3.215,2.3.91,0,.253-.177.721-.556.721-.341,0-.67-.48-1.744-.48-.923,0-1.58.354-1.58,1.15,0,1.871,4.108,1.024,4.108,4.387a2.569,2.569,0,0,1-2.882,2.693c-1.643,0-2.794-.86-2.794-1.492,0-.3.266-.721.582-.721.455,0,.758,1,2.162,1C176.224,239.041,176.906,238.611,176.906,237.7Zm0,0" transform="translate(-150.885 -201.864)" fill="#fd715c"/>
    <path id="Path_1575" data-name="Path 1575" d="M234.375,235.259h1.947a.484.484,0,0,1,.443.543.473.473,0,0,1-.443.518h-1.947v2.908h3.755c.278,0,.442.278.442.607,0,.278-.139.581-.442.581h-4.5c-.291,0-.594-.152-.594-.442v-8.356c0-.291.3-.442.594-.442h4.5c.3,0,.442.3.442.582,0,.328-.164.607-.442.607h-3.755Zm0,0" transform="translate(-203.752 -202.127)" fill="#fd715c"/>
    <path id="Path_1576" data-name="Path 1576" d="M289.273,237.674V234a2.838,2.838,0,0,1,5.676,0v3.679a2.838,2.838,0,0,1-5.676,0ZM293.609,234c0-1.112-.569-1.631-1.5-1.631s-1.492.518-1.492,1.631v3.679c0,1.112.544,1.631,1.492,1.631s1.5-.518,1.5-1.631Zm0,0" transform="translate(-252.923 -202.127)" fill="#fd715c"/>
    <path id="Path_1577" data-name="Path 1577" d="M363.471,36.483a1.182,1.182,0,1,1-1.182-1.182A1.183,1.183,0,0,1,363.471,36.483Zm0,0" transform="translate(-315.73 -30.865)" fill="#fe5c4f"/>
    <path id="Path_1578" data-name="Path 1578" d="M408.576,36.483a1.182,1.182,0,1,1-1.182-1.182A1.183,1.183,0,0,1,408.576,36.483Zm0,0" transform="translate(-355.167 -30.865)" fill="#fe5c4f"/>
    <path id="Path_1579" data-name="Path 1579" d="M453.682,36.483A1.182,1.182,0,1,1,452.5,35.3,1.183,1.183,0,0,1,453.682,36.483Zm0,0" transform="translate(-394.605 -30.865)" fill="#fe5c4f"/>
    <path id="Path_1580" data-name="Path 1580" d="M67.254,37.211H44.3a.942.942,0,1,0,0,1.885H67.254a.942.942,0,1,0,0-1.885Zm0,0" transform="translate(-37.911 -32.535)"/>
    <path id="Path_1581" data-name="Path 1581" d="M155.812,149.2a15.95,15.95,0,1,0,0,22.557A15.847,15.847,0,0,0,155.812,149.2Zm-1.333,21.224a14.065,14.065,0,1,1,0-19.891A13.971,13.971,0,0,1,154.479,170.426Zm0,0" transform="translate(-112.432 -126.37)"/>
    <path id="Path_1582" data-name="Path 1582" d="M61.046,0H3.292A3.3,3.3,0,0,0,0,3.291V49.078a.942.942,0,0,0,1.885,0V11.237H62.452v7.882a.942.942,0,0,0,1.885,0V3.291A3.3,3.3,0,0,0,61.046,0ZM1.885,9.352V3.291A1.408,1.408,0,0,1,3.292,1.885H61.046a1.408,1.408,0,0,1,1.406,1.406V9.352Zm0,0" transform="translate(0)"/>
  </g>
</svg>
