<svg xmlns="http://www.w3.org/2000/svg" width="77.982" height="77.982" viewBox="0 0 77.982 77.982">
  <g id="target" transform="translate(-1 -1)">
    <path id="Path_1522" data-name="Path 1522" d="M44.672,49.138,40.547,59.477l-1.761,4.4A3,3,0,0,1,33,62.76v-.176a3,3,0,0,1,.226-1.145l5.8-14.049A20.488,20.488,0,0,0,44.672,49.138Z" transform="translate(8.249 11.958)" fill="#dfb28b"/>
    <path id="Path_1523" data-name="Path 1523" d="M59.392,62.584v.176a3,3,0,0,1-5.786,1.119l-1.761-4.4L47.72,49.138a20.488,20.488,0,0,0,5.647-1.748l5.8,14.049A3,3,0,0,1,59.392,62.584Z" transform="translate(12.043 11.958)" fill="#dfb28b"/>
    <ellipse id="Ellipse_15" data-name="Ellipse 15" cx="21.5" cy="21" rx="21.5" ry="21" transform="translate(34.991 18.991)" fill="#ff826e"/>
    <ellipse id="Ellipse_16" data-name="Ellipse 16" cx="16.5" cy="16" rx="16.5" ry="16" transform="translate(39.991 23.991)" fill="#ffeaa7"/>
    <path id="Path_1524" data-name="Path 1524" d="M41.17,27.05A8.7,8.7,0,0,1,46.8,25a8.8,8.8,0,1,1,0,17.609A8.8,8.8,0,0,1,41.17,27.05Z" transform="translate(9.537 6.186)" fill="#ff826e"/>
    <g id="Group_1798" data-name="Group 1798" transform="translate(2.258 2.258)">
      <ellipse id="Ellipse_17" data-name="Ellipse 17" cx="11.5" cy="11" rx="11.5" ry="11" transform="translate(-0.267 26.733)" fill="#e6e9ed"/>
      <circle id="Ellipse_18" data-name="Ellipse 18" cx="11.5" cy="11.5" r="11.5" transform="translate(-0.267 52.733)" fill="#e6e9ed"/>
      <circle id="Ellipse_19" data-name="Ellipse 19" cx="11.5" cy="11.5" r="11.5" transform="translate(-0.267 -0.267)" fill="#e6e9ed"/>
    </g>
    <path id="Path_1525" data-name="Path 1525" d="M17.106,15.245a8.823,8.823,0,0,1,3.17,3.283,11.324,11.324,0,0,1-15.4,0,8.822,8.822,0,0,1,12.226-3.283Z" transform="translate(1 3.351)" fill="#fcd770"/>
    <path id="Path_1526" data-name="Path 1526" d="M17.106,36.245a8.823,8.823,0,0,1,3.17,3.283,11.324,11.324,0,0,1-15.4,0,8.822,8.822,0,0,1,12.226-3.283Z" transform="translate(1 8.764)" fill="#ff826e"/>
    <path id="Path_1527" data-name="Path 1527" d="M17.106,57.245a8.823,8.823,0,0,1,3.17,3.283,11.324,11.324,0,0,1-15.4,0,8.822,8.822,0,0,1,12.226-3.283Z" transform="translate(1 14.177)" fill="#4fc1e9"/>
    <circle id="Ellipse_20" data-name="Ellipse 20" cx="5" cy="5" r="5" transform="translate(8.991 6.991)" fill="#f0d0b4"/>
    <circle id="Ellipse_21" data-name="Ellipse 21" cx="5" cy="5" r="5" transform="translate(8.991 33.991)" fill="#f0d0b4"/>
    <circle id="Ellipse_22" data-name="Ellipse 22" cx="5" cy="5" r="5" transform="translate(8.991 59.991)" fill="#f0d0b4"/>
    <path id="Path_1528" data-name="Path 1528" d="M67.027,59.942A22.632,22.632,0,1,0,38.909,25.566L25.221,18.318a12.59,12.59,0,1,0-1.177,2.222l13.364,7.075a22.481,22.481,0,0,0-3.641,11.117H26.093a12.584,12.584,0,1,0,0,2.516h7.674a22.481,22.481,0,0,0,3.641,11.117L24.042,59.441a12.6,12.6,0,1,0,1.179,2.222l13.688-7.247a22.794,22.794,0,0,0,6.748,5.524l-5.344,12.98a4.214,4.214,0,0,0-.322,1.623v.181A4.258,4.258,0,0,0,48.2,76.305l1.444-3.612h13.39l1.445,3.612a4.258,4.258,0,0,0,8.211-1.581v-.181a4.226,4.226,0,0,0-.321-1.621ZM7.55,21.616a7.544,7.544,0,0,1,12.054,0,9.987,9.987,0,0,1-12.054,0ZM9.8,12.32a3.773,3.773,0,1,1,3.773,3.773A3.778,3.778,0,0,1,9.8,12.32Zm11.612,7.552a10.058,10.058,0,0,0-3.687-2.865,6.289,6.289,0,1,0-8.3,0,10.071,10.071,0,0,0-3.687,2.865,10.062,10.062,0,1,1,15.677,0ZM7.55,74.442a7.544,7.544,0,0,1,12.054,0,9.987,9.987,0,0,1-12.054,0Zm2.254-9.3a3.773,3.773,0,1,1,3.773,3.773A3.778,3.778,0,0,1,9.8,65.146ZM21.416,72.7a10.058,10.058,0,0,0-3.687-2.865,6.289,6.289,0,1,0-8.3,0A10.071,10.071,0,0,0,5.739,72.7a10.062,10.062,0,1,1,15.677,0Zm18.215-43.9,2.243,1.187A17.483,17.483,0,0,0,38.8,38.734H36.282a19.983,19.983,0,0,1,3.349-9.94Zm6.735,12.454a10.014,10.014,0,0,0,2.251,5.181l-4.5,2.382a14.994,14.994,0,0,1-2.807-7.563Zm2.542-2.516a7.522,7.522,0,0,1,2-3.968l4.844,2.565,1.177-2.224-3.723-1.971a7.547,7.547,0,1,1,0,13.712l3.723-1.971-1.177-2.224L50.91,45.217a7.522,7.522,0,0,1-2-3.968h7.433V38.733Zm1.679,9.5a10.062,10.062,0,1,0,0-16.484L45.8,29.212a15.093,15.093,0,1,1,0,21.558ZM48.619,33.552a10.018,10.018,0,0,0-2.251,5.181H41.313A14.994,14.994,0,0,1,44.12,31.17ZM7.55,48.029a7.544,7.544,0,0,1,12.054,0,9.987,9.987,0,0,1-12.054,0Zm2.254-9.3a3.773,3.773,0,1,1,3.773,3.773A3.778,3.778,0,0,1,9.8,38.733Zm11.612,7.552A10.058,10.058,0,0,0,17.73,43.42a6.289,6.289,0,1,0-8.3,0,10.071,10.071,0,0,0-3.687,2.865,10.062,10.062,0,1,1,15.677,0Zm14.866-5.036H38.8A17.483,17.483,0,0,0,41.874,50l-2.243,1.187A19.992,19.992,0,0,1,36.282,41.249ZM41.2,53.2l2.292-1.212a17.609,17.609,0,1,0,0-24L41.2,26.779a20.124,20.124,0,1,1,0,26.424Zm4.666,22.168a1.742,1.742,0,0,1-3.36-.648v-.181a1.73,1.73,0,0,1,.131-.663L47.942,61a22.546,22.546,0,0,0,3.263,1.024Zm4.787-5.195,3.083-7.709a21,21,0,0,0,5.211,0l3.084,7.709Zm19.524,4.547a1.742,1.742,0,0,1-3.359.648l-5.34-13.351A22.3,22.3,0,0,0,64.74,61l5.307,12.885a1.726,1.726,0,0,1,.131.663Z" transform="translate(0 0)"/>
  </g>
</svg>
