<svg xmlns="http://www.w3.org/2000/svg" width="17.89" height="19.913" viewBox="0 0 17.89 19.913">
  <g id="office-building" transform="translate(-26)">
    <path id="Path_1322" data-name="Path 1322" d="M43.5,4.667H36.112V.389A.389.389,0,0,0,35.723,0H26.389A.389.389,0,0,0,26,.389V19.524a.389.389,0,0,0,.389.389H43.5a.389.389,0,0,0,.389-.389V5.056A.389.389,0,0,0,43.5,4.667Zm-7.389.778h7v9.8h-7Zm-6.223,13.69V16.023h2.334v3.111Zm2.722-3.889H29.5a.389.389,0,0,0-.389.389v3.5H26.778V.778h8.556V19.135H33v-3.5A.389.389,0,0,0,32.612,15.246Zm3.5,3.889V16.023h7v3.111Z"/>
    <path id="Path_1323" data-name="Path 1323" d="M136.388,41.557h.778a.389.389,0,0,0,.389-.389V40.39a.389.389,0,0,0-.389-.389h-.778a.389.389,0,0,0-.389.389v.778A.389.389,0,0,0,136.388,41.557Z" transform="translate(-105.721 -38.445)"/>
    <path id="Path_1324" data-name="Path 1324" d="M136.388,111.557h.778a.389.389,0,0,0,.389-.389v-.778a.389.389,0,0,0-.389-.389h-.778a.389.389,0,0,0-.389.389v.778A.389.389,0,0,0,136.388,111.557Z" transform="translate(-105.721 -105.723)"/>
    <path id="Path_1325" data-name="Path 1325" d="M136.388,181.557h.778a.389.389,0,0,0,.389-.389v-.778a.389.389,0,0,0-.389-.389h-.778a.389.389,0,0,0-.389.389v.778A.389.389,0,0,0,136.388,181.557Z" transform="translate(-105.721 -173)"/>
    <path id="Path_1326" data-name="Path 1326" d="M136.388,251.556h.778a.389.389,0,0,0,.389-.389v-.778a.389.389,0,0,0-.389-.389h-.778a.389.389,0,0,0-.389.389v.778A.389.389,0,0,0,136.388,251.556Z" transform="translate(-105.721 -240.277)"/>
    <path id="Path_1327" data-name="Path 1327" d="M136.388,321.556h.778a.389.389,0,0,0,.389-.389v-.778a.389.389,0,0,0-.389-.389h-.778a.389.389,0,0,0-.389.389v.778A.389.389,0,0,0,136.388,321.556Z" transform="translate(-105.721 -307.555)"/>
    <path id="Path_1328" data-name="Path 1328" d="M66.39,41.557h.778a.389.389,0,0,0,.389-.389V40.39A.389.389,0,0,0,67.168,40H66.39A.389.389,0,0,0,66,40.39v.778A.389.389,0,0,0,66.39,41.557Z" transform="translate(-38.445 -38.445)"/>
    <path id="Path_1329" data-name="Path 1329" d="M66.39,111.557h.778a.389.389,0,0,0,.389-.389v-.778a.389.389,0,0,0-.389-.389H66.39a.389.389,0,0,0-.389.389v.778A.389.389,0,0,0,66.39,111.557Z" transform="translate(-38.445 -105.723)"/>
    <path id="Path_1330" data-name="Path 1330" d="M66.39,181.557h.778a.389.389,0,0,0,.389-.389v-.778a.389.389,0,0,0-.389-.389H66.39a.389.389,0,0,0-.389.389v.778A.389.389,0,0,0,66.39,181.557Z" transform="translate(-38.445 -173)"/>
    <path id="Path_1331" data-name="Path 1331" d="M66.39,251.556h.778a.389.389,0,0,0,.389-.389v-.778a.389.389,0,0,0-.389-.389H66.39a.389.389,0,0,0-.389.389v.778A.389.389,0,0,0,66.39,251.556Z" transform="translate(-38.445 -240.277)"/>
    <path id="Path_1332" data-name="Path 1332" d="M66.39,321.556h.778a.389.389,0,0,0,.389-.389v-.778a.389.389,0,0,0-.389-.389H66.39a.389.389,0,0,0-.389.389v.778A.389.389,0,0,0,66.39,321.556Z" transform="translate(-38.445 -307.555)"/>
    <path id="Path_1333" data-name="Path 1333" d="M207.168,40h-.778a.389.389,0,0,0-.389.389v.778a.389.389,0,0,0,.389.389h.778a.389.389,0,0,0,.389-.389V40.39A.389.389,0,0,0,207.168,40Z" transform="translate(-173 -38.445)"/>
    <path id="Path_1334" data-name="Path 1334" d="M207.168,110h-.778a.389.389,0,0,0-.389.389v.778a.389.389,0,0,0,.389.389h.778a.389.389,0,0,0,.389-.389v-.778A.389.389,0,0,0,207.168,110Z" transform="translate(-173 -105.722)"/>
    <path id="Path_1335" data-name="Path 1335" d="M207.168,180h-.778a.389.389,0,0,0-.389.389v.778a.389.389,0,0,0,.389.389h.778a.389.389,0,0,0,.389-.389v-.778A.389.389,0,0,0,207.168,180Z" transform="translate(-173 -172.999)"/>
    <path id="Path_1336" data-name="Path 1336" d="M207.168,250h-.778a.389.389,0,0,0-.389.389v.778a.389.389,0,0,0,.389.389h.778a.389.389,0,0,0,.389-.389v-.778A.389.389,0,0,0,207.168,250Z" transform="translate(-173 -240.277)"/>
    <path id="Path_1337" data-name="Path 1337" d="M207.168,320h-.778a.389.389,0,0,0-.389.389v.778a.389.389,0,0,0,.389.389h.778a.389.389,0,0,0,.389-.389v-.778A.389.389,0,0,0,207.168,320Z" transform="translate(-173 -307.555)"/>
    <path id="Path_1338" data-name="Path 1338" d="M392.167,180h-.778a.389.389,0,0,0-.389.389v.778a.389.389,0,0,0,.389.389h.778a.389.389,0,0,0,.389-.389v-.778A.389.389,0,0,0,392.167,180Z" transform="translate(-350.805 -172.999)"/>
    <path id="Path_1339" data-name="Path 1339" d="M392.167,250h-.778a.389.389,0,0,0-.389.389v.778a.389.389,0,0,0,.389.389h.778a.389.389,0,0,0,.389-.389v-.778A.389.389,0,0,0,392.167,250Z" transform="translate(-350.805 -240.277)"/>
    <path id="Path_1340" data-name="Path 1340" d="M392.167,320h-.778a.389.389,0,0,0-.389.389v.778a.389.389,0,0,0,.389.389h.778a.389.389,0,0,0,.389-.389v-.778A.389.389,0,0,0,392.167,320Z" transform="translate(-350.805 -307.555)"/>
    <path id="Path_1341" data-name="Path 1341" d="M322.169,180h-.778a.389.389,0,0,0-.389.389v.778a.389.389,0,0,0,.389.389h.778a.389.389,0,0,0,.389-.389v-.778A.389.389,0,0,0,322.169,180Z" transform="translate(-283.529 -172.999)"/>
    <path id="Path_1342" data-name="Path 1342" d="M322.169,250h-.778a.389.389,0,0,0-.389.389v.778a.389.389,0,0,0,.389.389h.778a.389.389,0,0,0,.389-.389v-.778A.389.389,0,0,0,322.169,250Z" transform="translate(-283.529 -240.277)"/>
    <path id="Path_1343" data-name="Path 1343" d="M322.169,320h-.778a.389.389,0,0,0-.389.389v.778a.389.389,0,0,0,.389.389h.778a.389.389,0,0,0,.389-.389v-.778A.389.389,0,0,0,322.169,320Z" transform="translate(-283.529 -307.555)"/>
  </g>
</svg>
