<svg xmlns="http://www.w3.org/2000/svg" width="68.472" height="60.269" viewBox="0 0 68.472 60.269">
  <g id="computer-screen" transform="translate(-10.988 -15.9)">
    <path id="Path_1495" data-name="Path 1495" d="M78.9,20.246v37.62a2.514,2.514,0,0,1-2.323,2.646H15.021A2.555,2.555,0,0,1,12.7,57.865V20.246A2.514,2.514,0,0,1,15.021,17.6h61.56A2.555,2.555,0,0,1,78.9,20.246Z" transform="translate(-0.606 -0.603)" fill="#fe5c4f"/>
    <path id="Path_1496" data-name="Path 1496" d="M78.9,20.246V52.187H12.7V20.246A2.514,2.514,0,0,1,15.021,17.6h61.56A2.555,2.555,0,0,1,78.9,20.246Z" transform="translate(-0.606 -0.603)" fill="#fe5c4f"/>
    <path id="Path_1497" data-name="Path 1497" d="M67.168,95.65H49.1L51.617,84.1h12.97Z" transform="translate(-13.519 -24.192)" fill="#fe5c4f"/>
    <path id="Path_1498" data-name="Path 1498" d="M40,102H70.328v3.485H40Z" transform="translate(-10.291 -30.541)" fill="#343434"/>
    <path id="Path_1499" data-name="Path 1499" d="M21.1,25.8H76.4v10H21.1Z" transform="translate(-3.587 -3.512)" fill="#fee45a"/>
    <path id="Path_1500" data-name="Path 1500" d="M21.1,41.3H76.4V60.658H21.1Z" transform="translate(-3.587 -9.01)" fill="#efedef"/>
    <g id="Group_1797" data-name="Group 1797" transform="translate(10.988 15.9)">
      <path id="Path_1501" data-name="Path 1501" d="M75.975,15.9H14.416A3.611,3.611,0,0,0,11,19.707V57.262a3.655,3.655,0,0,0,3.42,3.807h6.066a1.162,1.162,0,0,0,0-2.323H14.416A1.429,1.429,0,0,1,13.254,57.2V52.681H77.137V57.2a1.472,1.472,0,0,1-1.161,1.549H33.71a1.162,1.162,0,0,0,0,2.323h3.033l-2.065,9.292H29.709a1.157,1.157,0,0,0-1.162,1.162v3.485a1.157,1.157,0,0,0,1.162,1.162H60.037A1.157,1.157,0,0,0,61.2,75.008V71.459A1.157,1.157,0,0,0,60.037,70.3H54.488L52.423,61H75.911a3.611,3.611,0,0,0,3.42-3.807V36.291a1.162,1.162,0,1,0-2.323,0V50.551H73.846V22.288a1.157,1.157,0,0,0-1.161-1.162H17.513a1.157,1.157,0,0,0-1.162,1.162v28.2H13.19V19.707a1.429,1.429,0,0,1,1.162-1.549h61.56a1.429,1.429,0,0,1,1.162,1.549v3.355a1.162,1.162,0,0,0,2.323,0v-3.42a3.554,3.554,0,0,0-3.42-3.743ZM58.94,73.846H30.806V72.62h28.07v1.226Zm-6.711-3.485H36.936L39,61.07H50.164ZM71.717,23.385v7.743H18.675V23.385ZM18.675,33.452H71.781v17.1H18.675Z" transform="translate(-10.988 -15.9)" fill="#343434"/>
      <path id="Path_1502" data-name="Path 1502" d="M114.662,31.1a1.19,1.19,0,0,0-1.162,1.1v5.678a1.162,1.162,0,0,0,2.323,0V32.2A1.241,1.241,0,0,0,114.662,31.1Z" transform="translate(-47.351 -21.292)" fill="#343434"/>
      <path id="Path_1503" data-name="Path 1503" d="M37.7,83.461A1.157,1.157,0,0,0,36.54,82.3H30.862a1.162,1.162,0,1,0,0,2.323H36.54A1.157,1.157,0,0,0,37.7,83.461Z" transform="translate(-17.626 -39.453)" fill="#343434"/>
      <path id="Path_1504" data-name="Path 1504" d="M28.713,34.526A1.613,1.613,0,1,0,27.1,32.913,1.6,1.6,0,0,0,28.713,34.526Z" transform="translate(-16.703 -21.363)" fill="#343434"/>
      <path id="Path_1505" data-name="Path 1505" d="M38.213,34.526A1.613,1.613,0,1,0,36.6,32.913,1.6,1.6,0,0,0,38.213,34.526Z" transform="translate(-20.073 -21.363)" fill="#343434"/>
      <path id="Path_1506" data-name="Path 1506" d="M47.713,34.526A1.613,1.613,0,1,0,46.1,32.913,1.6,1.6,0,0,0,47.713,34.526Z" transform="translate(-23.443 -21.363)" fill="#343434"/>
      <path id="Path_1507" data-name="Path 1507" d="M75.809,49.6H28.962a1.161,1.161,0,1,0,0,2.323H75.809a1.157,1.157,0,0,0,1.161-1.161A1.2,1.2,0,0,0,75.809,49.6Z" transform="translate(-16.952 -27.854)" fill="#343434"/>
      <path id="Path_1508" data-name="Path 1508" d="M61.484,59.7H28.962a1.162,1.162,0,1,0,0,2.323H61.484a1.162,1.162,0,0,0,0-2.323Z" transform="translate(-16.952 -31.437)" fill="#343434"/>
    </g>
  </g>
</svg>
