<svg id="search_2_" data-name="search (2)" xmlns="http://www.w3.org/2000/svg" width="29.431" height="29.431" viewBox="0 0 29.431 29.431">
  <g id="Group_1746" data-name="Group 1746" transform="translate(4.425 6.379)">
    <g id="Group_1745" data-name="Group 1745">
      <path id="Path_1260" data-name="Path 1260" d="M80.679,111.294a1.087,1.087,0,0,0-1.538,0,7.431,7.431,0,0,0-2.125,6.024,1.087,1.087,0,0,0,1.081.979c.036,0,.073,0,.109-.005a1.088,1.088,0,0,0,.974-1.19,5.265,5.265,0,0,1,1.5-4.27A1.087,1.087,0,0,0,80.679,111.294Z" transform="translate(-76.978 -110.975)" fill="#fff"/>
    </g>
  </g>
  <g id="Group_1748" data-name="Group 1748">
    <g id="Group_1747" data-name="Group 1747">
      <path id="Path_1261" data-name="Path 1261" d="M12.432,0A12.432,12.432,0,1,0,24.864,12.432,12.446,12.446,0,0,0,12.432,0Zm0,22.689A10.257,10.257,0,1,1,22.689,12.432,10.269,10.269,0,0,1,12.432,22.689Z" fill="#fff"/>
    </g>
  </g>
  <g id="Group_1750" data-name="Group 1750" transform="translate(19.355 19.355)">
    <g id="Group_1749" data-name="Group 1749">
      <path id="Path_1262" data-name="Path 1262" d="M346.466,344.93l-7.9-7.9a1.087,1.087,0,1,0-1.538,1.538l7.9,7.9a1.087,1.087,0,0,0,1.538-1.537Z" transform="translate(-336.708 -336.709)" fill="#fff"/>
    </g>
  </g>
</svg>
