<svg xmlns="http://www.w3.org/2000/svg" width="79.832" height="65.669" viewBox="0 0 79.832 65.669">
  <g id="computer_3_" data-name="computer (3)" transform="translate(-8 -56)">
    <g id="Group_1795" data-name="Group 1795" transform="translate(9.288 57.288)">
      <g id="Group_1793" data-name="Group 1793" transform="translate(0 0)">
        <path id="Path_1473" data-name="Path 1473" d="M93.257,336v3.863a3.864,3.864,0,0,1-3.863,3.863H19.863A3.864,3.864,0,0,1,16,339.863V336Z" transform="translate(-16 -292.221)" fill="#57565c"/>
        <path id="Path_1474" data-name="Path 1474" d="M93.257,67.863v39.916H16V67.863A3.864,3.864,0,0,1,19.863,64H89.394a3.864,3.864,0,0,1,3.863,3.863Z" transform="translate(-16 -64)" fill="#83d8f4"/>
        <path id="Path_1475" data-name="Path 1475" d="M218.027,391.726H200L202.575,384h12.876Z" transform="translate(-170.385 -332.495)" fill="#e0e0e2"/>
        <path id="Path_1476" data-name="Path 1476" d="M168,432h28.328v3.863H168Z" transform="translate(-143.535 -372.77)" fill="#57565c"/>
      </g>
      <g id="Group_1794" data-name="Group 1794" transform="translate(15.451 10.301)">
        <path id="Path_1477" data-name="Path 1477" d="M256,161.478V128h11.589v33.478" transform="translate(-232.823 -128)" fill="#e0e0e2"/>
        <path id="Path_1478" data-name="Path 1478" d="M184,192h7.726v23.016H184Z" transform="translate(-172.411 -181.699)" fill="#ff5023"/>
        <path id="Path_1479" data-name="Path 1479" d="M191.726,169.288v2.575H184v-2.575l.644-1.288h6.438Z" transform="translate(-172.411 -161.562)" fill="#d9ccbc"/>
        <path id="Path_1480" data-name="Path 1480" d="M194.438,134.438H188L191.219,128Z" transform="translate(-175.768 -128)" fill="#57565c"/>
        <path id="Path_1481" data-name="Path 1481" d="M352,256h7.726v12.876H352Z" transform="translate(-313.371 -235.398)" fill="#ffda44"/>
        <path id="Path_1482" data-name="Path 1482" d="M359.726,199.726V202.3H352v-2.575L355.863,192Z" transform="translate(-313.371 -181.699)" fill="#e0e0e2"/>
        <path id="Path_1483" data-name="Path 1483" d="M119.726,134.438c0,2.845-1.729,5.15-3.863,5.15S112,137.283,112,134.438,115.863,128,115.863,128,119.726,131.594,119.726,134.438Z" transform="translate(-112 -128)" fill="#5f4d37"/>
        <path id="Path_1484" data-name="Path 1484" d="M125.15,207.726H120L121.288,200h2.575Z" transform="translate(-118.712 -188.411)" fill="#e0e0e2"/>
        <path id="Path_1485" data-name="Path 1485" d="M120.59,262.164,120,248h5.15l-.59,14.164" transform="translate(-118.712 -228.686)" fill="#2d2d30"/>
      </g>
    </g>
    <g id="Group_1796" data-name="Group 1796" transform="translate(8 56)">
      <path id="Path_1486" data-name="Path 1486" d="M82.682,56H13.15A5.157,5.157,0,0,0,8,61.15v43.779a5.157,5.157,0,0,0,5.15,5.15H39.692l-1.717,5.15H33.752a1.288,1.288,0,0,0-1.288,1.288v2.575H20.876a1.288,1.288,0,0,0,0,2.575H77.531a1.288,1.288,0,1,0,0-2.575H63.368v-2.575a1.288,1.288,0,0,0-1.288-1.288H57.858l-1.717-5.15H82.682a5.157,5.157,0,0,0,5.15-5.15V61.15A5.157,5.157,0,0,0,82.682,56ZM60.792,117.806v1.288H35.04v-1.288Zm-20.1-2.575,1.717-5.15H53.426l1.717,5.15Zm44.568-10.3a2.579,2.579,0,0,1-2.575,2.575H13.15a2.579,2.579,0,0,1-2.575-2.575v-2.575H85.257ZM29.835,88.19l-.483,11.589h-1.5L27.369,88.19Zm-2.289-2.575.859-5.15H28.8l.859,5.15ZM28.6,77.89c-1.4,0-2.575-1.769-2.575-3.863,0-1.321,1.349-3.242,2.572-4.6,1.1,1.223,2.578,3.179,2.578,4.6C31.177,76.121,30,77.89,28.6,77.89Zm14.013-2.575.151.3V76.6h-5.15v-.983l.151-.3Zm-3.56-2.575,1.136-2.271,1.136,2.271Zm3.712,6.438V99.618a1.329,1.329,0,0,0,.011.161H37.6a1.328,1.328,0,0,0,.011-.161V79.177Zm11.589-5.15h3.863V76.6H56.929a1.288,1.288,0,0,0,0,2.575h1.288v2.575H54.354a1.288,1.288,0,1,0,0,2.575h3.863V86.9H56.929a1.288,1.288,0,0,0,0,2.575h1.288v2.575H54.354a1.288,1.288,0,1,0,0,2.575h3.863v5.15H49.2v-30.9h9.013v2.575H54.354a1.288,1.288,0,0,0,0,2.575ZM69.806,89.478v10.14a1.325,1.325,0,0,0,.011.161H64.644a1.332,1.332,0,0,0,.011-.161V89.478ZM64.655,86.9v-.983l2.575-5.15,2.575,5.15V86.9Zm20.6,12.876H72.37a1.325,1.325,0,0,0,.011-.161v-14a1.3,1.3,0,0,0-.135-.576l-3.863-7.726a1.289,1.289,0,0,0-2.3,0l-3.863,7.726a1.3,1.3,0,0,0-.135.576v14a1.328,1.328,0,0,0,.011.161h-1.3V67.589A1.288,1.288,0,0,0,59.5,66.3H47.916a1.288,1.288,0,0,0-1.288,1.288v32.19h-1.3a1.331,1.331,0,0,0,.011-.161v-24.3a1.3,1.3,0,0,0-.135-.576l-3.863-7.726a1.289,1.289,0,0,0-2.3,0l-3.863,7.726a1.3,1.3,0,0,0-.135.576v24.3a1.33,1.33,0,0,0,.011.161H31.929l.534-12.823c0-.029,0-.058,0-.089v-.039a1.289,1.289,0,0,0-.016-.135v0l-1.191-7.148a6.9,6.9,0,0,0,2.5-5.516c0-3.309-3.835-6.974-4.273-7.381a1.29,1.29,0,0,0-1.754,0c-.438.407-4.273,4.072-4.273,7.381a6.9,6.9,0,0,0,2.5,5.516L24.757,86.69v0a1.29,1.29,0,0,0-.016.135v.039c0,.031,0,.06,0,.089l.534,12.823h-14.7V61.15a2.579,2.579,0,0,1,2.575-2.575H82.682a2.579,2.579,0,0,1,2.575,2.575Z" transform="translate(-8 -56)"/>
      <path id="Path_1487" data-name="Path 1487" d="M49.013,352H41.288a1.288,1.288,0,1,0,0,2.575h7.726a1.288,1.288,0,1,0,0-2.575Z" transform="translate(-34.85 -304.358)"/>
      <path id="Path_1488" data-name="Path 1488" d="M114.575,352h-1.288a1.288,1.288,0,1,0,0,2.575h1.288a1.288,1.288,0,1,0,0-2.575Z" transform="translate(-95.261 -304.358)"/>
      <path id="Path_1489" data-name="Path 1489" d="M201.288,208A1.288,1.288,0,0,0,200,209.288v14.164a1.288,1.288,0,1,0,2.575,0V209.288A1.288,1.288,0,0,0,201.288,208Z" transform="translate(-169.097 -183.535)"/>
      <path id="Path_1490" data-name="Path 1490" d="M369.288,272A1.288,1.288,0,0,0,368,273.288v3.863a1.288,1.288,0,1,0,2.575,0v-3.863A1.288,1.288,0,0,0,369.288,272Z" transform="translate(-310.057 -237.234)"/>
      <path id="Path_1491" data-name="Path 1491" d="M41.288,90.575h10.3a1.288,1.288,0,0,0,0-2.575h-10.3a1.288,1.288,0,1,0,0,2.575Z" transform="translate(-34.85 -82.85)"/>
      <path id="Path_1492" data-name="Path 1492" d="M41.288,114.575h2.575a1.288,1.288,0,0,0,0-2.575H41.288a1.288,1.288,0,1,0,0,2.575Z" transform="translate(-34.85 -102.987)"/>
      <path id="Path_1493" data-name="Path 1493" d="M425.288,298.575h5.15a1.288,1.288,0,0,0,0-2.575h-5.15a1.288,1.288,0,0,0,0,2.575Z" transform="translate(-357.044 -257.371)"/>
      <path id="Path_1494" data-name="Path 1494" d="M449.288,274.575h1.288a1.288,1.288,0,0,0,0-2.575h-1.288a1.288,1.288,0,0,0,0,2.575Z" transform="translate(-377.181 -237.234)"/>
    </g>
  </g>
</svg>
