<svg xmlns="http://www.w3.org/2000/svg" width="14.307" height="19.364" viewBox="0 0 14.307 19.364">
  <g id="pin_2_" data-name="pin (2)" transform="translate(-48.08)">
    <g id="Group_1752" data-name="Group 1752" transform="translate(48.08)">
      <g id="Group_1751" data-name="Group 1751" transform="translate(0)">
        <path id="Path_1263" data-name="Path 1263" d="M55.233,0A7.161,7.161,0,0,0,48.08,7.153a8.253,8.253,0,0,0,.607,2.754,11.535,11.535,0,0,0,.827,1.546l4.9,7.431a.933.933,0,0,0,1.63,0l4.905-7.432a11.488,11.488,0,0,0,.827-1.546,8.251,8.251,0,0,0,.606-2.754A7.161,7.161,0,0,0,55.233,0ZM61,9.581a10.569,10.569,0,0,1-.754,1.41l-4.905,7.432c-.1.147-.127.147-.224,0L50.216,10.99a10.575,10.575,0,0,1-.754-1.41,7.491,7.491,0,0,1-.541-2.427,6.312,6.312,0,0,1,12.623,0A7.5,7.5,0,0,1,61,9.581Z" transform="translate(-48.08)"/>
        <path id="Path_1264" data-name="Path 1264" d="M115.867,64.008a3.787,3.787,0,1,0,3.787,3.787A3.791,3.791,0,0,0,115.867,64.008Zm0,6.733a2.945,2.945,0,1,1,2.945-2.945A2.949,2.949,0,0,1,115.867,70.741Z" transform="translate(-108.714 -60.641)"/>
      </g>
    </g>
  </g>
</svg>
