<svg xmlns="http://www.w3.org/2000/svg" width="194.907" height="50.729" viewBox="0 0 194.907 50.729">
  <g id="Group_1792" data-name="Group 1792" transform="translate(-0.5 -0.07)">
    <path id="Path_1254" data-name="Path 1254" d="M953.155,214.093l-6.419-3.675a.734.734,0,0,0-.986.214,6.216,6.216,0,0,1-5.42,2.718,6.868,6.868,0,0,1,0-13.731,6.231,6.231,0,0,1,5.406,2.719.747.747,0,0,0,1,.209l6.421-3.726a.756.756,0,0,0,.271-1.049,15.319,15.319,0,0,0-12.981-6.913c-9,0-16.478,6.807-16.478,15.625s7.481,15.624,16.478,15.624a15.166,15.166,0,0,0,12.985-6.969A.757.757,0,0,0,953.155,214.093Z" transform="translate(-829.184 -171.311)" fill="#fff"/>
    <circle id="Ellipse_7" data-name="Ellipse 7" cx="5.697" cy="5.697" r="5.697" transform="translate(184.013 38.863)" fill="#fe5c4f"/>
    <path id="Path_1255" data-name="Path 1255" d="M1280.2,131.247a11.824,11.824,0,0,0-7.738,2.5.733.733,0,0,1-.712.138v-8.7a.722.722,0,0,0-.722-.722h-8.087a.722.722,0,0,0-.722.722v35.739a.722.722,0,0,0,.722.722h8.087a.722.722,0,0,0,.722-.722V145.228a5.241,5.241,0,0,1,5.219-5.241h.073c3.033,0,5.423,1.832,5.423,5.747v15.182a.722.722,0,0,0,.722.722h8.1a.722.722,0,0,0,.722-.722V144.346C1292.013,135.82,1286.581,131.247,1280.2,131.247Z" transform="translate(-1132.9 -111.69)" fill="#fff"/>
    <path id="Path_1256" data-name="Path 1256" d="M744.926,153.142c-3.7.171-5.738-.208-5.738-2.757l.037-10.67h4.089a.722.722,0,0,0,.722-.722v-7.058a.722.722,0,0,0-.722-.722h-4.089v-6.051a.722.722,0,0,0-.722-.722h-8.1a.722.722,0,0,0-.722.722l.007,25.222c0,8.681,3.483,12.432,15.33,11.367a.728.728,0,0,0,.659-.721V153.86A.716.716,0,0,0,744.926,153.142Z" transform="translate(-654.731 -111.672)" fill="#fff"/>
    <path id="Path_1257" data-name="Path 1257" d="M23.781,28.793,41.391,3.134l1.081-1.566a.955.955,0,0,0-.786-1.5H32.642a1.659,1.659,0,0,0-1.366.717L10.143,31.435a.052.052,0,0,1-.095-.03V13.5a.722.722,0,0,0-.722-.722h-8.1A.722.722,0,0,0,.5,13.5V48.289a1.661,1.661,0,0,0,1.661,1.661H8.387a3.044,3.044,0,0,0,.455-.07,1.735,1.735,0,0,0,.274-.1,3.375,3.375,0,0,0,.325-.211l.033-.034a5.73,5.73,0,0,0,.53-.665L17.8,37.5,25.66,49.234a1.66,1.66,0,0,0,1.366.717h8.543a1.485,1.485,0,0,0,1.222-2.329Z" transform="translate(0 0)" fill="#fff"/>
    <path id="Path_1258" data-name="Path 1258" d="M1633.575,191.051a1.12,1.12,0,0,0-1.22-1.123,10.356,10.356,0,0,0-6.124,2.693,1.244,1.244,0,0,1-1.988-.33,1.223,1.223,0,0,1-.136-.62v-.928a.713.713,0,0,0-.71-.722h-8.115a.722.722,0,0,0-.722.722V219.7a.722.722,0,0,0,.722.722h8.1a.721.721,0,0,0,.721-.722V207.79a9.1,9.1,0,0,1,.136-1.529c.781-4.62,5.091-6.047,8.562-5.759a.706.706,0,0,0,.769-.716v-8.735Z" transform="translate(-1449.266 -170.468)" fill="#fff"/>
    <path id="Path_1259" data-name="Path 1259" d="M410.67,193.808c-2.458-1.956-5.818-2.948-9.987-2.948a15.842,15.842,0,0,0-9.145,2.639,11.339,11.339,0,0,0-3.6,3.921,1.089,1.089,0,0,0-.012,1.027,1.272,1.272,0,0,0,.89.662l6.461,1.253a1.291,1.291,0,0,0,1.2-.405c.967-1.058,2.542-1.594,4.682-1.594a4.685,4.685,0,0,1,3.351,1.175,4.037,4.037,0,0,1,1.264,3.112h-8.174c-3.849,0-6.914.875-9.11,2.6a8.527,8.527,0,0,0-3.355,7.041,8.81,8.81,0,0,0,3.315,7.122,13.291,13.291,0,0,0,8.665,2.694,14.023,14.023,0,0,0,8.658-2.614v1.055a.731.731,0,0,0,.749.711h7a.863.863,0,0,0,.885-.839V202.108A10.05,10.05,0,0,0,410.67,193.808Zm-15.914,16.322a4.444,4.444,0,0,1,2.728-.78h8.294a5.117,5.117,0,0,1-2.167,4.028,8.2,8.2,0,0,1-5.222,1.746,6.112,6.112,0,0,1-3.415-.854,2.448,2.448,0,0,1-1.2-2.148A2.352,2.352,0,0,1,394.756,210.129Z" transform="translate(-345.368 -171.311)" fill="#fff"/>
  </g>
</svg>
