<svg xmlns="http://www.w3.org/2000/svg" width="90.465" height="23.546" viewBox="0 0 90.465 23.546">
  <g id="Group_1744" data-name="Group 1744" transform="translate(-0.5 -0.07)">
    <path id="Path_1254" data-name="Path 1254" d="M937.516,201.643l-2.979-1.706a.341.341,0,0,0-.458.1,2.885,2.885,0,0,1-2.516,1.261,3.188,3.188,0,0,1,0-6.373,2.892,2.892,0,0,1,2.509,1.262.347.347,0,0,0,.464.1l2.98-1.729a.351.351,0,0,0,.126-.487,7.11,7.11,0,0,0-6.025-3.209,7.262,7.262,0,1,0,0,14.5,7.039,7.039,0,0,0,6.027-3.235A.352.352,0,0,0,937.516,201.643Z" transform="translate(-879.708 -181.749)" fill="#1d1d1b"/>
    <circle id="Ellipse_7" data-name="Ellipse 7" cx="2.644" cy="2.644" r="2.644" transform="translate(85.677 18.075)" fill="#fe5c4f"/>
    <path id="Path_1255" data-name="Path 1255" d="M1270.566,127.61a5.488,5.488,0,0,0-3.592,1.159.341.341,0,0,1-.331.064V124.8a.335.335,0,0,0-.335-.335h-3.754a.335.335,0,0,0-.335.335v16.588a.335.335,0,0,0,.335.335h3.754a.335.335,0,0,0,.335-.335V134.1a2.433,2.433,0,0,1,2.422-2.432h.034a2.393,2.393,0,0,1,2.517,2.668v7.047a.335.335,0,0,0,.335.335h3.761a.335.335,0,0,0,.335-.335V133.69C1276.048,129.732,1273.527,127.61,1270.566,127.61Z" transform="translate(-1201.929 -118.495)" fill="#1d1d1b"/>
    <path id="Path_1256" data-name="Path 1256" d="M736.756,137.762c-1.715.08-2.663-.1-2.663-1.28l.017-4.953h1.9a.335.335,0,0,0,.335-.335v-3.276a.335.335,0,0,0-.335-.335h-1.9v-2.809a.335.335,0,0,0-.335-.335h-3.76a.335.335,0,0,0-.335.335l0,11.706c0,4.029,1.616,5.77,7.115,5.276a.338.338,0,0,0,.306-.335V138.1A.332.332,0,0,0,736.756,137.762Z" transform="translate(-694.625 -118.476)" fill="#1d1d1b"/>
    <path id="Path_1257" data-name="Path 1257" d="M11.306,13.4,19.479,1.492l.5-.727a.443.443,0,0,0-.365-.7h-4.2A.77.77,0,0,0,14.784.4L4.976,14.628a.024.024,0,0,1-.044-.014V6.3A.335.335,0,0,0,4.6,5.967H.835A.335.335,0,0,0,.5,6.3V22.451a.771.771,0,0,0,.771.771h2.89a1.413,1.413,0,0,0,.211-.033.805.805,0,0,0,.127-.048,1.566,1.566,0,0,0,.151-.1l.015-.016a2.66,2.66,0,0,0,.246-.309l3.621-5.275,3.646,5.446a.77.77,0,0,0,.634.333h3.965a.689.689,0,0,0,.567-1.081Z" fill="#1d1d1b"/>
    <path id="Path_1258" data-name="Path 1258" d="M1623.386,190.446a.52.52,0,0,0-.566-.521,4.806,4.806,0,0,0-2.842,1.25.577.577,0,0,1-.923-.153.566.566,0,0,1-.063-.288V190.3a.331.331,0,0,0-.33-.335H1614.9a.335.335,0,0,0-.335.335v13.439a.335.335,0,0,0,.335.335h3.761a.335.335,0,0,0,.335-.335v-5.527a4.213,4.213,0,0,1,.063-.71c.362-2.144,2.363-2.807,3.974-2.673a.328.328,0,0,0,.357-.332v-4.054Z" transform="translate(-1537.572 -180.855)" fill="#1d1d1b"/>
    <path id="Path_1259" data-name="Path 1259" d="M396.99,192.228a7.27,7.27,0,0,0-4.636-1.368,7.353,7.353,0,0,0-4.245,1.225,5.263,5.263,0,0,0-1.669,1.82.506.506,0,0,0-.006.477.59.59,0,0,0,.413.307l3,.581a.6.6,0,0,0,.558-.188,2.83,2.83,0,0,1,2.173-.74,2.175,2.175,0,0,1,1.555.545,1.874,1.874,0,0,1,.587,1.444h-3.794a6.705,6.705,0,0,0-4.229,1.207,3.958,3.958,0,0,0-1.557,3.268,4.089,4.089,0,0,0,1.539,3.306,6.169,6.169,0,0,0,4.022,1.251,6.509,6.509,0,0,0,4.019-1.213v.49a.339.339,0,0,0,.348.33h3.249a.4.4,0,0,0,.411-.39v-8.5A4.665,4.665,0,0,0,396.99,192.228ZM389.6,199.8a2.062,2.062,0,0,1,1.266-.362h3.849a2.375,2.375,0,0,1-1.006,1.869,3.807,3.807,0,0,1-2.424.81,2.837,2.837,0,0,1-1.585-.4,1.136,1.136,0,0,1-.556-1A1.092,1.092,0,0,1,389.6,199.8Z" transform="translate(-366.412 -181.749)" fill="#1d1d1b"/>
  </g>
</svg>
